<?xml version="1.0" standalone="no"?>
<!DOCTYPE svg PUBLIC "-//W3C//DTD SVG 20010904//EN"
 "http://www.w3.org/TR/2001/REC-SVG-20010904/DTD/svg10.dtd">
<svg version="1.0" xmlns="http://www.w3.org/2000/svg"
 width="80px"  height="80px" viewBox="0 0 968.000000 1280.000000"
 fill="#fff" preserveAspectRatio="xMidYMid meet">
<metadata>
Created by potrace 1.15, written by Peter Selinger 2001-2017
</metadata>
<g transform="translate(0.000000,1280.000000) scale(0.100000,-0.100000)"
 stroke="none">
<path d="M9484 12777 c-50 -36 -145 -119 -180 -157 -209 -230 -493 -616 -929
-1265 -300 -446 -421 -621 -575 -825 -64 -85 -148 -200 -186 -255 -96 -139
-1955 -2602 -3635 -4815 -1627 -2144 -1909 -2516 -2359 -3115 -555 -740 -1275
-1739 -1414 -1964 -110 -179 -208 -363 -198 -373 15 -15 179 128 291 253 281
313 1076 1301 1667 2074 143 187 562 734 931 1217 369 482 916 1202 1214 1600
299 397 755 1000 1014 1338 259 338 752 989 1096 1445 345 457 830 1098 1080
1427 250 328 544 718 654 868 110 149 237 315 283 368 312 360 918 1144 1174
1517 167 245 238 373 259 463 8 37 7 61 -7 118 l-16 71 -53 17 c-65 20 -73 20
-111 -7z m-107 -342 c44 -44 41 -62 -31 -159 -29 -39 -105 -146 -169 -238
-153 -219 -747 -1010 -755 -1006 -32 15 -82 52 -82 59 0 24 100 182 260 409
37 52 117 168 179 257 61 89 162 226 223 305 195 250 248 320 248 329 0 15 62
79 77 79 8 0 31 -16 50 -35z"/>
</g>
</svg>
