<svg id="svg" version="1.1" xmlns="http://www.w3.org/2000/svg" xmlns:xlink="http://www.w3.org/1999/xlink" width="400" height="439.51807228915663" viewBox="0, 0, 400,439.51807228915663"><g id="svgg"><path id="path0" d="M144.000 53.902 L 144.000 107.805 142.892 108.295 C 142.282 108.565,140.367 109.148,138.635 109.591 C 136.903 110.034,135.287 110.560,135.043 110.760 C 134.799 110.961,133.520 111.436,132.200 111.818 C 130.880 112.199,129.173 112.846,128.406 113.255 C 127.639 113.665,126.863 114.000,126.681 114.000 C 126.346 114.000,124.085 115.007,119.000 117.421 C 117.460 118.152,115.570 119.032,114.800 119.378 C 114.030 119.723,112.360 120.589,111.090 121.303 C 109.819 122.016,107.839 123.115,106.690 123.745 C 105.540 124.374,104.316 125.139,103.969 125.445 C 103.621 125.750,103.188 126.000,103.006 126.000 C 102.824 126.000,102.119 126.423,101.438 126.941 C 100.757 127.458,99.570 128.202,98.800 128.595 C 98.030 128.987,97.256 129.554,97.080 129.854 C 96.904 130.154,96.569 130.400,96.335 130.400 C 96.101 130.400,94.805 131.215,93.455 132.212 C 92.105 133.209,90.579 134.334,90.065 134.712 C 89.550 135.090,88.687 135.805,88.147 136.300 C 87.606 136.795,87.059 137.200,86.931 137.200 C 86.706 137.200,80.993 141.873,78.653 143.972 C 78.022 144.537,75.052 147.445,72.053 150.432 C 66.830 155.635,64.446 158.220,60.832 162.600 C 59.924 163.700,58.961 164.864,58.691 165.186 C 58.055 165.944,55.348 169.511,53.751 171.693 C 53.064 172.632,52.272 173.850,51.992 174.400 C 51.712 174.950,51.239 175.544,50.942 175.720 C 50.644 175.896,50.400 176.267,50.400 176.544 C 50.400 176.822,50.076 177.398,49.680 177.825 C 49.284 178.251,48.519 179.410,47.980 180.400 C 47.441 181.390,46.889 182.290,46.754 182.400 C 46.618 182.510,46.116 183.320,45.638 184.200 C 45.160 185.080,44.156 186.880,43.406 188.200 C 41.934 190.792,38.515 197.649,36.924 201.200 C 36.382 202.410,35.684 203.940,35.372 204.600 C 35.061 205.260,34.562 206.520,34.264 207.400 L 33.721 209.000 25.122 209.200 C 19.792 209.324,16.309 209.567,15.961 209.839 C 15.653 210.080,14.462 210.577,13.316 210.942 C 7.401 212.826,1.753 219.244,0.414 225.600 C -0.450 229.703,0.037 313.743,0.938 316.000 C 2.941 321.018,6.988 325.367,11.708 327.573 C 15.694 329.436,17.337 329.715,25.761 329.965 L 33.721 330.200 34.274 331.800 C 34.578 332.680,35.160 334.120,35.569 335.000 C 37.536 339.243,38.383 341.138,39.007 342.700 C 39.381 343.635,39.812 344.400,39.964 344.400 C 40.117 344.400,40.569 345.308,40.968 346.418 C 41.367 347.528,41.897 348.653,42.147 348.918 C 42.396 349.183,43.012 350.210,43.515 351.200 C 44.018 352.190,44.648 353.358,44.915 353.796 C 47.050 357.301,48.436 359.481,50.458 362.509 C 51.746 364.439,52.800 366.183,52.800 366.386 C 52.800 366.589,53.131 366.990,53.537 367.277 C 53.942 367.565,54.511 368.250,54.801 368.800 C 55.403 369.938,55.934 370.613,61.881 377.800 C 67.341 384.399,76.589 393.675,82.400 398.381 C 83.830 399.539,85.750 401.103,86.667 401.857 L 88.334 403.228 88.495 416.314 L 88.656 429.400 89.906 431.800 C 91.528 434.915,93.610 437.010,96.400 438.335 C 97.653 438.930,100.580 439.012,124.351 439.114 C 154.132 439.241,153.620 439.283,156.835 436.473 L 158.600 434.930 163.400 435.638 C 166.040 436.027,168.887 436.358,169.726 436.373 C 170.566 436.388,171.576 436.573,171.971 436.785 C 174.395 438.082,207.059 438.112,209.528 436.820 C 209.897 436.627,212.180 436.262,214.600 436.010 C 217.020 435.757,219.735 435.451,220.634 435.330 C 222.037 435.141,222.463 435.276,223.634 436.281 C 226.988 439.158,225.147 439.000,255.400 439.000 C 286.511 439.000,284.555 439.199,288.200 435.661 C 289.622 434.280,290.800 432.744,290.802 432.266 C 290.804 432.010,291.116 431.260,291.497 430.600 C 292.105 429.545,292.205 427.849,292.319 416.537 L 292.450 403.673 293.925 402.679 C 294.736 402.133,296.085 401.048,296.922 400.269 C 297.759 399.490,298.596 398.795,298.783 398.726 C 300.522 398.080,315.633 383.059,320.000 377.636 C 320.770 376.680,321.672 375.603,322.005 375.243 C 322.338 374.884,323.046 373.962,323.578 373.195 C 324.109 372.428,324.781 371.530,325.071 371.200 C 326.780 369.252,333.659 359.126,335.397 356.000 C 335.948 355.010,337.016 353.120,337.772 351.800 C 340.766 346.569,345.600 336.477,345.600 335.458 C 345.600 335.096,345.773 334.800,345.984 334.800 C 346.195 334.800,346.725 333.644,347.161 332.230 C 347.598 330.817,348.151 329.332,348.390 328.930 C 348.901 328.072,350.499 323.372,351.630 319.400 C 352.068 317.860,352.674 315.964,352.976 315.186 C 353.278 314.408,353.838 312.158,354.222 310.186 C 354.605 308.214,355.062 306.413,355.237 306.185 C 355.413 305.957,355.947 302.987,356.424 299.585 C 356.900 296.183,357.387 293.130,357.506 292.800 C 357.979 291.481,358.293 288.473,358.613 282.200 C 358.941 275.743,359.154 274.334,359.724 274.814 C 362.094 276.812,362.932 277.330,365.208 278.201 C 367.774 279.184,373.200 279.646,373.200 278.883 C 373.200 278.709,374.021 278.346,375.024 278.078 C 376.026 277.810,377.241 277.186,377.724 276.691 C 379.607 274.758,379.791 274.699,381.873 275.354 C 386.673 276.864,387.240 276.967,388.028 276.475 C 388.447 276.214,389.157 276.000,389.607 276.000 C 392.831 276.000,397.133 272.061,398.587 267.779 C 400.552 261.990,400.468 245.947,398.406 233.036 C 397.823 229.387,397.832 229.428,397.576 229.200 C 397.453 229.090,397.027 227.110,396.628 224.800 C 395.578 218.708,395.543 218.643,393.491 218.971 C 392.561 219.119,391.629 219.412,391.420 219.620 C 391.211 219.829,390.671 220.003,390.220 220.006 C 388.499 220.019,388.432 220.367,389.250 225.001 C 389.678 227.420,390.197 229.760,390.405 230.200 C 390.833 231.111,392.400 242.080,392.400 244.173 C 392.400 244.932,392.580 245.664,392.800 245.800 C 393.339 246.133,393.339 261.067,392.800 261.400 C 392.580 261.536,392.390 262.132,392.378 262.724 C 392.295 266.712,388.390 270.224,385.418 268.982 C 384.090 268.427,383.943 268.229,384.148 267.277 C 386.128 258.117,385.835 238.625,383.645 233.800 C 383.445 233.360,382.975 231.792,382.601 230.316 C 382.226 228.839,381.668 227.422,381.360 227.167 C 381.052 226.911,380.800 226.445,380.800 226.131 C 380.800 225.074,376.302 221.013,374.554 220.491 C 365.685 217.845,359.910 225.452,361.561 237.603 C 362.072 241.366,362.174 241.926,362.509 242.800 C 362.636 243.130,363.035 244.795,363.397 246.500 C 363.759 248.205,364.222 249.600,364.427 249.600 C 364.632 249.600,364.763 249.735,364.718 249.900 C 364.402 251.056,369.842 262.333,372.231 265.473 C 372.764 266.174,373.200 266.911,373.200 267.112 C 373.200 267.313,373.573 267.908,374.030 268.434 L 374.859 269.391 373.730 270.305 C 373.108 270.808,372.383 271.395,372.117 271.610 C 370.467 272.942,365.978 271.093,363.275 267.968 C 360.283 264.509,359.172 261.355,358.554 254.571 C 357.907 247.472,357.865 247.146,357.534 246.600 C 357.400 246.380,357.168 245.030,357.017 243.600 C 356.610 239.732,355.628 233.911,355.229 233.000 C 355.036 232.560,354.577 230.760,354.208 229.000 C 353.840 227.240,353.204 224.810,352.797 223.600 C 352.389 222.390,351.845 220.455,351.588 219.300 C 351.331 218.145,350.948 217.200,350.736 217.200 C 350.525 217.200,350.469 217.012,350.611 216.782 C 350.753 216.553,350.693 216.148,350.477 215.882 C 350.262 215.617,349.773 214.275,349.390 212.900 C 349.008 211.525,348.578 210.400,348.435 210.400 C 348.292 210.400,347.932 209.545,347.634 208.500 C 347.337 207.455,346.696 205.786,346.210 204.792 C 345.723 203.797,345.013 202.042,344.631 200.892 C 344.248 199.741,343.770 198.800,343.568 198.800 C 343.366 198.800,343.191 198.575,343.179 198.300 C 343.142 197.385,338.963 189.171,338.679 189.454 C 338.526 189.608,338.400 189.420,338.400 189.037 C 338.400 188.316,335.944 183.852,333.943 180.935 C 333.314 180.019,332.800 179.134,332.800 178.968 C 332.800 178.803,332.529 178.382,332.198 178.034 C 331.866 177.685,330.653 175.960,329.501 174.200 C 328.350 172.440,327.181 170.856,326.904 170.680 C 326.627 170.504,326.400 170.182,326.400 169.963 C 326.400 169.745,326.044 169.184,325.608 168.717 C 325.173 168.249,324.318 167.138,323.708 166.247 C 323.099 165.356,322.330 164.324,322.000 163.953 C 321.670 163.583,320.860 162.625,320.200 161.824 C 316.971 157.908,307.877 148.527,302.628 143.697 C 300.351 141.603,293.753 136.279,291.600 134.800 C 290.830 134.271,290.110 133.740,290.000 133.619 C 289.890 133.499,288.630 132.597,287.200 131.615 C 285.770 130.633,284.362 129.598,284.071 129.315 C 283.781 129.032,283.362 128.800,283.141 128.800 C 282.919 128.800,281.733 128.080,280.504 127.200 C 279.275 126.320,278.029 125.600,277.735 125.600 C 277.441 125.600,277.200 125.424,277.200 125.209 C 277.200 124.994,276.525 124.471,275.700 124.046 C 274.875 123.622,272.850 122.557,271.200 121.680 C 267.192 119.550,262.124 117.069,260.400 116.394 C 259.630 116.092,258.910 115.734,258.800 115.597 C 258.690 115.461,257.430 114.922,256.000 114.400 C 254.570 113.878,253.310 113.338,253.200 113.200 C 253.090 113.063,251.920 112.622,250.600 112.222 C 249.280 111.822,247.467 111.168,246.571 110.769 C 245.675 110.371,243.695 109.735,242.171 109.357 C 240.647 108.978,239.310 108.542,239.200 108.388 C 239.090 108.233,237.560 107.793,235.800 107.411 C 234.040 107.028,231.835 106.449,230.900 106.124 L 229.200 105.534 229.200 52.767 L 229.200 0.000 225.600 0.000 L 222.000 0.000 222.000 55.757 C 222.000 101.449,222.095 111.551,222.526 111.716 C 222.815 111.827,224.435 112.141,226.126 112.414 C 227.817 112.687,229.200 113.054,229.200 113.230 C 229.200 113.406,229.515 113.552,229.900 113.554 C 230.911 113.559,237.763 115.284,238.000 115.592 C 238.110 115.736,239.730 116.279,241.600 116.799 C 243.470 117.319,245.360 117.961,245.800 118.227 C 246.240 118.492,247.590 119.021,248.800 119.402 C 250.843 120.045,251.943 120.513,258.075 123.348 C 259.327 123.927,260.529 124.400,260.747 124.400 C 260.965 124.400,261.381 124.636,261.671 124.923 C 261.962 125.211,263.235 125.874,264.500 126.397 C 265.765 126.920,266.800 127.463,266.800 127.605 C 266.800 127.747,267.745 128.297,268.900 128.827 C 270.055 129.358,271.090 129.904,271.200 130.042 C 271.310 130.180,272.190 130.693,273.156 131.183 C 274.122 131.673,275.279 132.415,275.727 132.832 C 276.175 133.249,276.914 133.707,277.371 133.849 C 277.827 133.992,278.290 134.234,278.400 134.388 C 278.510 134.543,279.664 135.345,280.966 136.171 C 282.267 136.998,283.561 137.882,283.842 138.137 C 284.122 138.392,285.001 139.050,285.794 139.600 C 288.351 141.374,291.366 143.709,292.700 144.949 C 293.415 145.613,294.000 146.069,294.000 145.962 C 294.000 145.508,298.609 149.850,304.869 156.200 C 308.557 159.940,312.119 163.550,312.787 164.222 C 313.454 164.894,314.000 165.649,314.000 165.899 C 314.000 166.150,314.320 166.590,314.711 166.877 C 315.103 167.165,315.778 167.871,316.211 168.447 C 317.800 170.555,321.027 174.880,322.000 176.205 C 325.010 180.304,328.248 185.291,328.581 186.342 C 328.731 186.814,329.013 187.200,329.208 187.200 C 329.403 187.200,329.936 187.965,330.392 188.900 C 332.208 192.622,333.695 195.410,333.965 195.600 C 334.122 195.710,334.664 196.835,335.171 198.100 C 335.678 199.365,336.224 200.400,336.383 200.400 C 336.543 200.400,336.897 201.165,337.171 202.100 C 337.444 203.035,337.988 204.352,338.378 205.028 C 338.768 205.703,339.409 207.233,339.803 208.428 C 340.196 209.622,340.651 210.690,340.814 210.800 C 340.977 210.910,341.473 212.170,341.916 213.600 C 342.360 215.030,343.107 217.170,343.577 218.356 C 344.048 219.542,344.626 221.432,344.863 222.556 C 345.100 223.680,345.444 224.788,345.627 225.018 C 345.811 225.247,346.335 227.047,346.791 229.018 C 347.248 230.988,347.701 232.941,347.799 233.359 C 347.897 233.776,348.148 234.676,348.357 235.359 C 348.566 236.041,349.035 238.760,349.400 241.400 C 349.764 244.040,350.219 246.560,350.411 247.000 C 352.255 251.232,352.208 290.208,350.357 292.180 C 350.161 292.389,349.999 293.019,349.998 293.580 C 349.995 294.825,348.209 305.400,348.002 305.400 C 347.928 305.400,346.022 313.174,345.894 314.000 C 345.842 314.330,345.701 314.690,345.580 314.800 C 345.458 314.910,344.955 316.350,344.462 318.000 C 343.968 319.650,343.510 321.180,343.443 321.400 C 343.376 321.620,343.209 322.070,343.073 322.400 C 342.937 322.730,342.354 324.260,341.779 325.800 C 341.203 327.340,340.470 329.296,340.151 330.147 C 339.003 333.212,332.085 347.591,331.563 348.000 C 331.422 348.110,330.899 349.010,330.400 350.000 C 329.901 350.990,329.362 351.890,329.202 352.000 C 329.042 352.110,328.598 352.813,328.214 353.562 C 327.830 354.311,326.995 355.643,326.358 356.522 C 325.721 357.401,325.200 358.344,325.200 358.617 C 325.200 358.891,324.939 359.214,324.621 359.337 C 324.302 359.459,323.737 360.149,323.363 360.871 C 321.951 363.601,312.003 375.990,307.817 380.233 C 307.147 380.911,305.746 382.351,304.703 383.433 C 302.359 385.864,298.411 389.449,294.200 392.971 C 292.440 394.443,290.640 395.959,290.200 396.340 C 289.760 396.721,288.455 397.715,287.300 398.550 L 285.200 400.068 285.200 413.567 C 285.200 420.992,285.065 427.202,284.900 427.367 C 284.735 427.532,284.592 427.787,284.583 427.933 C 284.515 429.018,283.009 430.817,281.804 431.253 C 281.032 431.532,280.400 431.905,280.400 432.080 C 280.400 432.256,269.347 432.400,255.838 432.400 L 231.276 432.400 229.599 431.505 C 228.677 431.013,227.673 430.158,227.369 429.605 C 226.228 427.532,224.400 426.001,224.400 427.120 C 224.400 427.373,215.671 428.740,210.400 429.312 C 209.850 429.371,209.205 429.543,208.967 429.692 C 207.052 430.896,176.132 430.813,172.200 429.595 C 171.540 429.390,168.120 428.850,164.600 428.394 C 161.080 427.938,157.602 427.352,156.870 427.092 C 155.450 426.586,154.522 427.257,153.611 429.450 C 153.417 429.917,152.412 430.772,151.379 431.350 L 149.499 432.400 124.950 432.400 C 111.447 432.400,100.400 432.259,100.400 432.088 C 100.400 431.916,99.890 431.583,99.266 431.347 C 98.642 431.112,97.607 430.232,96.966 429.391 L 95.800 427.864 95.600 413.832 C 95.481 405.499,95.238 399.556,95.000 399.200 C 94.471 398.407,92.161 396.800,91.550 396.800 C 91.284 396.800,91.175 396.691,91.308 396.559 C 91.441 396.426,90.436 395.427,89.075 394.338 C 79.277 386.504,64.752 371.150,60.184 363.800 C 59.774 363.140,59.202 362.330,58.913 362.000 C 58.625 361.670,57.644 360.230,56.734 358.800 C 55.824 357.370,54.495 355.300,53.781 354.200 C 51.630 350.887,49.708 347.532,48.568 345.100 C 47.976 343.835,47.335 342.800,47.145 342.800 C 46.955 342.800,46.800 342.623,46.800 342.408 C 46.800 342.192,46.080 340.478,45.200 338.600 C 44.320 336.722,43.600 335.102,43.600 335.001 C 43.600 334.900,42.982 333.497,42.226 331.884 C 41.471 330.270,40.723 328.421,40.565 327.775 C 40.406 327.129,40.160 326.510,40.018 326.400 C 39.875 326.290,39.491 325.480,39.164 324.600 L 38.568 323.000 28.584 322.752 C 19.093 322.515,16.200 322.168,14.900 321.109 C 14.625 320.885,14.400 320.827,14.400 320.980 C 14.400 321.132,14.148 321.019,13.839 320.729 C 6.036 313.371,6.800 318.936,6.800 269.495 C 6.800 244.584,6.948 228.115,7.176 227.695 C 7.383 227.313,7.867 226.119,8.252 225.043 C 9.150 222.534,12.110 219.549,15.343 217.894 L 17.800 216.637 28.262 216.489 L 38.724 216.342 39.328 214.671 C 41.314 209.170,42.197 206.985,42.480 206.867 C 42.656 206.793,42.800 206.424,42.800 206.047 C 42.800 205.669,42.958 205.189,43.152 204.980 C 43.345 204.771,43.719 203.925,43.983 203.100 C 44.246 202.275,44.628 201.600,44.831 201.600 C 45.034 201.600,45.200 201.409,45.200 201.175 C 45.200 200.703,49.227 192.317,49.605 192.000 C 49.737 191.890,50.224 190.980,50.688 189.978 C 51.152 188.975,51.817 187.918,52.166 187.629 C 52.515 187.339,52.800 186.950,52.800 186.765 C 52.800 186.472,55.418 182.145,56.292 180.994 C 56.461 180.770,57.494 179.240,58.586 177.594 C 59.679 175.947,60.765 174.420,61.001 174.200 C 61.237 173.980,61.870 173.172,62.409 172.405 C 62.948 171.638,63.622 170.738,63.906 170.405 C 64.191 170.072,65.154 168.900,66.047 167.800 C 72.424 159.942,81.616 150.866,90.400 143.752 C 93.900 140.918,94.666 140.346,97.391 138.533 C 98.266 137.951,99.230 137.227,99.533 136.924 C 99.836 136.621,100.785 136.016,101.642 135.579 C 102.499 135.141,103.200 134.607,103.200 134.392 C 103.200 134.176,103.438 134.000,103.730 134.000 C 104.021 134.000,105.145 133.370,106.228 132.600 C 107.311 131.830,108.423 131.200,108.699 131.200 C 108.974 131.200,109.200 131.020,109.200 130.800 C 109.200 130.580,109.455 130.400,109.767 130.400 C 110.078 130.400,110.393 130.265,110.467 130.100 C 110.540 129.935,111.500 129.354,112.600 128.810 C 113.700 128.265,114.690 127.716,114.800 127.589 C 114.910 127.462,115.990 126.940,117.200 126.429 C 118.410 125.918,119.490 125.373,119.600 125.219 C 119.710 125.065,120.835 124.515,122.100 123.996 C 123.365 123.477,124.400 122.906,124.400 122.726 C 124.400 122.547,124.661 122.400,124.981 122.400 C 125.300 122.400,126.965 121.791,128.681 121.048 C 130.396 120.304,132.790 119.380,134.000 118.995 C 135.210 118.609,136.380 118.157,136.600 117.990 C 136.820 117.823,138.440 117.287,140.200 116.800 C 141.960 116.313,143.580 115.780,143.800 115.616 C 144.020 115.452,145.550 114.987,147.200 114.583 C 148.850 114.178,150.425 113.680,150.700 113.475 C 151.096 113.180,151.200 101.326,151.200 56.551 L 151.200 0.000 147.600 0.000 L 144.000 0.000 144.000 53.902 M185.200 19.379 C 185.200 19.489,185.740 19.859,186.400 20.200 C 187.060 20.541,187.600 20.731,187.600 20.621 C 187.600 20.511,187.060 20.141,186.400 19.800 C 185.740 19.459,185.200 19.269,185.200 19.379 M200.100 34.287 C 200.705 34.378,201.695 34.378,202.300 34.287 C 202.905 34.195,202.410 34.120,201.200 34.120 C 199.990 34.120,199.495 34.195,200.100 34.287 M192.500 34.687 C 193.105 34.778,194.095 34.778,194.700 34.687 C 195.305 34.595,194.810 34.520,193.600 34.520 C 192.390 34.520,191.895 34.595,192.500 34.687 M182.300 35.082 C 182.795 35.178,183.605 35.178,184.100 35.082 C 184.595 34.987,184.190 34.909,183.200 34.909 C 182.210 34.909,181.805 34.987,182.300 35.082 M254.975 146.500 L 253.800 147.800 255.100 146.625 C 255.815 145.979,256.400 145.394,256.400 145.325 C 256.400 145.016,256.070 145.288,254.975 146.500 M373.373 228.500 C 374.084 229.215,374.985 230.700,375.375 231.800 C 375.765 232.900,376.232 234.160,376.413 234.600 C 377.484 237.209,378.788 251.115,378.445 256.267 C 378.181 260.213,377.848 261.104,377.236 259.494 C 377.023 258.935,376.688 258.378,376.491 258.256 C 376.174 258.060,373.259 252.313,372.405 250.200 C 372.227 249.760,371.812 248.770,371.482 248.000 C 371.151 247.230,370.649 245.520,370.365 244.200 C 370.082 242.880,369.713 241.705,369.546 241.590 C 368.887 241.132,368.261 232.574,368.747 230.646 C 369.650 227.057,371.216 226.331,373.373 228.500 " stroke="none" fill="#d4d4db" fill-rule="evenodd"></path><path id="path1" d="M174.900 10.292 C 174.625 10.388,174.400 10.822,174.400 11.257 C 174.400 11.692,174.253 11.956,174.072 11.845 C 173.892 11.733,173.816 12.128,173.903 12.721 C 174.044 13.683,174.719 14.104,180.115 16.600 C 187.315 19.930,187.766 20.006,187.891 17.916 C 187.959 16.780,187.828 16.400,187.367 16.400 C 187.000 16.400,186.869 16.212,187.042 15.932 C 187.232 15.624,187.119 15.546,186.709 15.703 C 186.368 15.834,185.727 15.605,185.286 15.195 C 184.846 14.784,184.391 14.542,184.277 14.656 C 184.162 14.771,183.648 14.632,183.134 14.347 C 182.620 14.063,182.071 13.866,181.914 13.910 C 181.757 13.954,181.732 13.721,181.859 13.391 C 182.023 12.963,181.904 12.862,181.445 13.038 C 181.090 13.174,180.800 13.092,180.800 12.855 C 180.800 12.619,180.530 12.529,180.200 12.655 C 179.870 12.782,179.600 12.686,179.600 12.443 C 179.600 12.199,179.139 12.000,178.576 12.000 C 178.004 12.000,177.660 11.826,177.797 11.605 C 177.937 11.378,177.777 11.311,177.421 11.447 C 177.078 11.579,176.800 11.476,176.800 11.219 C 176.800 10.963,176.631 10.857,176.425 10.985 C 176.218 11.112,175.903 10.969,175.725 10.667 C 175.546 10.365,175.175 10.196,174.900 10.292 M172.437 24.155 C 171.489 25.298,173.543 27.777,174.796 27.002 C 175.452 26.597,175.258 24.976,174.469 24.262 C 173.576 23.454,173.042 23.426,172.437 24.155 M188.600 29.297 C 187.060 29.460,184.585 29.705,183.100 29.842 L 180.400 30.090 180.405 31.345 C 180.408 32.035,180.525 33.027,180.665 33.549 L 180.919 34.498 190.559 34.230 C 202.118 33.910,202.400 33.869,202.400 32.545 C 202.400 31.999,202.554 31.648,202.742 31.764 C 203.232 32.067,202.761 29.903,202.218 29.361 C 201.707 28.850,193.199 28.809,188.600 29.297 M167.600 45.600 C 167.600 45.820,167.317 46.000,166.971 46.000 C 166.400 46.000,166.400 46.057,166.971 46.629 C 167.317 46.974,167.603 47.559,167.606 47.929 C 167.611 48.508,167.665 48.518,168.000 48.000 C 168.326 47.495,168.389 47.519,168.394 48.149 C 168.399 48.769,168.503 48.812,169.000 48.400 C 169.330 48.126,169.600 48.069,169.600 48.272 C 169.600 48.475,170.486 48.960,171.568 49.350 C 172.651 49.739,173.619 50.274,173.721 50.538 C 173.822 50.802,174.349 51.054,174.892 51.099 C 175.435 51.144,176.852 51.634,178.040 52.187 C 180.038 53.117,180.237 53.142,180.700 52.520 C 181.455 51.504,181.403 51.447,178.500 50.101 C 177.015 49.412,174.032 48.028,171.872 47.024 C 167.541 45.013,167.600 45.033,167.600 45.600 M201.208 49.880 C 200.061 50.683,200.201 51.481,201.760 53.040 C 204.555 55.835,207.516 53.863,205.004 50.878 C 203.831 49.484,202.335 49.090,201.208 49.880 M189.429 59.666 C 189.597 60.180,189.759 60.900,189.790 61.267 C 189.821 61.633,190.106 62.248,190.423 62.632 C 190.867 63.169,190.885 63.369,190.500 63.498 C 189.800 63.734,189.874 64.400,190.600 64.400 C 190.930 64.400,191.201 64.625,191.202 64.900 C 191.204 65.175,191.462 65.892,191.775 66.493 C 192.135 67.182,192.199 67.677,191.949 67.832 C 191.720 67.973,191.858 68.311,192.276 68.631 C 192.907 69.114,192.923 69.236,192.400 69.586 C 191.861 69.947,192.105 70.173,192.900 70.047 C 193.065 70.021,193.200 70.281,193.200 70.624 C 193.200 70.967,193.020 71.136,192.800 71.000 C 192.580 70.864,192.400 70.924,192.400 71.134 C 192.400 71.343,192.670 71.618,193.000 71.745 C 193.330 71.871,193.600 72.431,193.600 72.987 C 193.600 75.106,195.583 73.674,196.217 71.099 C 196.949 68.118,198.979 67.568,202.110 69.500 C 205.468 71.573,208.336 71.641,210.547 69.700 C 211.362 68.985,212.202 68.400,212.414 68.400 C 212.626 68.400,212.800 67.666,212.800 66.769 C 212.800 65.018,211.132 62.800,209.815 62.800 C 209.459 62.800,208.631 62.403,207.975 61.918 C 204.923 59.662,201.260 60.471,198.800 63.945 L 198.200 64.792 196.428 63.983 C 195.453 63.539,193.822 62.395,192.803 61.442 C 190.235 59.039,189.015 58.397,189.429 59.666 M164.800 76.599 C 164.506 77.149,164.180 77.513,164.076 77.409 C 163.971 77.305,164.137 76.900,164.443 76.510 C 164.941 75.875,164.931 75.854,164.344 76.312 C 163.305 77.124,163.140 78.883,164.045 79.517 C 164.468 79.813,164.717 80.210,164.600 80.400 C 164.483 80.589,164.570 80.858,164.793 80.996 C 165.017 81.134,165.200 81.035,165.200 80.775 C 165.200 80.418,165.344 80.422,165.787 80.789 C 166.110 81.057,166.335 81.463,166.287 81.690 C 166.239 81.917,166.605 82.140,167.100 82.185 C 168.173 82.282,168.426 82.498,168.563 83.429 C 168.620 83.815,169.086 84.194,169.602 84.273 C 170.791 84.455,171.591 85.115,171.632 85.949 C 171.655 86.429,171.720 86.457,171.880 86.055 C 171.999 85.755,172.210 85.669,172.348 85.865 C 172.487 86.061,173.366 86.817,174.302 87.545 C 175.238 88.274,175.910 89.022,175.795 89.207 C 175.681 89.393,175.798 89.675,176.055 89.834 C 176.365 90.025,176.416 89.949,176.206 89.610 C 175.993 89.265,176.072 89.163,176.444 89.298 C 176.750 89.409,176.955 89.703,176.900 89.950 C 176.845 90.198,176.980 90.400,177.200 90.400 C 177.420 90.400,177.614 90.265,177.631 90.100 C 177.739 89.034,178.014 88.239,178.561 87.404 C 179.247 86.356,178.613 85.674,172.740 81.143 C 171.498 80.184,169.381 78.545,168.036 77.500 C 165.163 75.268,165.468 75.352,164.800 76.599 M186.000 102.070 C 185.450 102.301,184.396 102.546,183.658 102.615 C 181.300 102.835,179.096 106.175,180.300 107.704 C 180.514 107.977,180.807 108.690,180.950 109.289 C 181.713 112.488,185.860 113.916,190.310 112.513 L 192.491 111.825 193.455 112.946 C 194.314 113.944,194.408 114.391,194.310 116.999 C 194.189 120.227,194.506 120.998,195.418 119.696 C 195.748 119.225,196.239 118.605,196.509 118.319 C 198.087 116.648,200.087 113.797,201.673 110.960 C 204.780 105.401,204.384 104.228,200.400 107.200 C 197.254 109.547,194.634 109.555,194.005 107.218 C 193.003 103.496,188.896 100.855,186.000 102.070 M171.854 117.229 C 169.827 118.823,170.689 120.800,173.410 120.800 C 175.268 120.800,176.800 119.575,176.800 118.088 C 176.800 116.348,173.666 115.804,171.854 117.229 M130.025 132.700 C 127.305 134.904,127.973 141.065,131.059 142.244 C 133.178 143.053,133.343 144.155,131.800 147.200 C 130.686 149.399,130.428 151.207,131.337 150.452 C 131.632 150.207,131.978 150.111,132.105 150.238 C 132.232 150.365,132.631 150.019,132.991 149.469 C 133.719 148.359,136.187 147.021,136.804 147.403 C 137.022 147.537,137.200 147.347,137.200 146.981 C 137.200 146.543,137.413 146.396,137.821 146.553 C 138.177 146.689,138.337 146.622,138.197 146.395 C 138.063 146.178,138.143 146.000,138.376 146.000 C 138.609 146.000,138.806 146.225,138.813 146.500 C 138.820 146.805,139.032 146.728,139.357 146.300 C 139.649 145.915,140.318 145.594,140.844 145.587 L 141.800 145.573 140.852 144.784 C 140.331 144.349,139.228 143.886,138.401 143.754 C 137.575 143.622,136.426 143.076,135.849 142.541 L 134.800 141.568 135.600 140.000 C 136.894 137.463,136.197 134.776,133.930 133.562 C 133.427 133.294,132.775 132.832,132.480 132.537 C 131.758 131.815,131.060 131.861,130.025 132.700 M214.866 132.639 C 212.601 134.225,215.886 137.772,218.284 136.329 C 219.824 135.402,219.944 133.929,218.568 132.846 C 217.284 131.836,216.106 131.770,214.866 132.639 M159.005 135.300 C 158.440 137.795,158.509 138.862,159.269 139.336 C 159.671 139.587,160.000 140.030,160.000 140.320 C 160.000 140.610,160.180 140.736,160.400 140.600 C 160.620 140.464,160.800 140.538,160.800 140.764 C 160.800 140.990,161.070 141.071,161.400 140.945 C 161.730 140.818,162.000 140.924,162.000 141.181 C 162.000 141.437,162.176 141.538,162.392 141.405 C 162.998 141.030,164.465 141.969,164.134 142.520 C 163.961 142.808,164.116 142.781,164.523 142.451 C 165.108 141.976,165.200 141.993,165.200 142.575 C 165.200 142.945,165.359 143.149,165.554 143.028 C 165.749 142.908,166.486 143.011,167.193 143.257 C 167.998 143.538,168.301 143.814,168.005 143.997 C 167.675 144.201,167.745 144.370,168.234 144.558 C 168.639 144.713,169.074 144.610,169.262 144.314 C 169.525 143.898,169.589 143.900,169.594 144.324 C 169.597 144.612,169.761 144.748,169.958 144.626 C 170.155 144.504,170.424 144.685,170.555 145.028 C 170.687 145.370,170.971 145.541,171.188 145.408 C 171.404 145.274,172.080 145.435,172.691 145.766 C 173.336 146.116,173.549 146.386,173.200 146.412 C 172.798 146.442,172.864 146.561,173.400 146.774 C 173.887 146.967,174.315 146.916,174.494 146.645 C 174.696 146.338,174.790 146.363,174.794 146.724 C 174.797 147.012,174.981 147.135,175.203 146.998 C 175.424 146.861,175.713 147.030,175.845 147.372 C 175.976 147.715,176.229 147.906,176.406 147.796 C 176.930 147.472,178.000 148.040,178.000 148.643 C 178.000 148.949,178.191 149.200,178.424 149.200 C 178.657 149.200,178.736 149.020,178.600 148.800 C 178.464 148.580,178.644 148.400,179.000 148.400 C 179.379 148.400,179.532 148.587,179.368 148.852 C 179.199 149.126,179.307 149.231,179.643 149.119 C 180.292 148.903,180.722 146.705,180.495 144.762 C 180.323 143.289,180.916 143.669,173.125 140.044 C 171.654 139.360,170.338 138.800,170.200 138.800 C 170.063 138.800,169.017 138.367,167.875 137.838 C 163.962 136.025,159.487 134.000,159.394 134.000 C 159.342 134.000,159.167 134.585,159.005 135.300 M258.329 137.921 C 257.740 137.991,257.043 138.307,256.780 138.624 C 256.517 138.941,256.065 139.200,255.775 139.200 C 255.485 139.200,255.119 139.408,254.962 139.662 C 254.777 139.962,254.853 140.014,255.180 139.813 C 256.029 139.288,254.521 141.297,252.937 142.800 C 252.126 143.570,251.592 143.977,251.752 143.705 C 251.949 143.368,251.839 143.287,251.411 143.451 C 250.918 143.640,250.882 143.816,251.246 144.256 C 251.622 144.708,251.584 144.769,251.052 144.565 C 250.588 144.386,250.456 144.480,250.609 144.879 C 250.818 145.423,248.098 148.299,247.548 148.116 C 247.409 148.070,246.959 148.416,246.548 148.885 C 246.136 149.354,246.053 149.588,246.363 149.406 C 246.785 149.158,246.877 149.266,246.729 149.837 C 246.557 150.506,246.788 150.613,248.595 150.703 L 250.657 150.805 255.028 145.926 C 257.433 143.243,259.789 140.671,260.265 140.210 L 261.130 139.373 260.265 138.584 C 259.740 138.106,258.979 137.845,258.329 137.921 M103.764 144.530 C 103.614 145.008,103.291 145.532,103.046 145.694 C 102.763 145.881,102.842 145.990,103.263 145.994 C 103.722 145.998,104.084 146.616,104.439 148.000 C 104.721 149.100,105.119 150.000,105.325 150.000 C 105.530 150.000,105.465 150.280,105.181 150.623 C 104.774 151.114,104.771 151.219,105.169 151.123 C 105.468 151.050,105.935 151.816,106.315 153.000 C 106.668 154.100,107.124 155.115,107.329 155.255 C 107.535 155.396,107.586 155.698,107.445 155.928 C 107.303 156.157,107.382 156.465,107.621 156.613 C 107.859 156.760,107.958 157.133,107.840 157.440 C 107.722 157.748,107.799 158.000,108.013 158.000 C 108.226 158.000,108.400 158.191,108.400 158.424 C 108.400 158.657,108.222 158.737,108.005 158.603 C 107.778 158.463,107.711 158.623,107.846 158.977 C 107.977 159.317,108.276 159.477,108.510 159.332 C 108.779 159.166,108.840 159.320,108.675 159.750 C 108.405 160.452,108.547 160.545,110.534 160.983 C 111.271 161.145,111.577 161.087,111.410 160.816 C 111.257 160.569,111.573 160.400,112.187 160.400 C 113.185 160.400,113.201 160.362,112.655 159.300 C 112.343 158.695,111.716 157.030,111.261 155.600 C 110.267 152.479,107.731 145.575,107.538 145.462 C 107.462 145.418,106.643 144.994,105.718 144.520 L 104.035 143.659 103.764 144.530 M227.041 146.300 C 226.707 146.642,223.162 148.678,220.200 150.229 C 219.100 150.805,216.220 152.389,213.800 153.750 L 209.400 156.225 209.539 159.012 C 209.703 162.310,209.740 162.373,210.902 161.328 C 212.030 160.312,213.480 159.735,212.957 160.510 C 212.760 160.800,212.915 160.694,213.300 160.275 C 213.685 159.855,214.000 159.656,214.000 159.832 C 214.000 160.009,214.283 159.804,214.630 159.376 C 214.976 158.949,215.148 158.870,215.011 159.200 C 214.875 159.530,215.063 159.395,215.430 158.900 C 216.076 158.029,217.100 157.591,216.600 158.400 C 216.464 158.620,216.501 158.800,216.682 158.800 C 216.862 158.800,217.195 158.395,217.420 157.900 C 217.645 157.405,218.048 157.045,218.315 157.100 C 218.582 157.155,218.800 157.049,218.800 156.864 C 218.800 156.358,220.797 155.551,221.292 155.857 C 221.529 156.004,221.617 155.952,221.488 155.742 C 221.180 155.244,222.401 154.492,223.300 154.625 C 223.685 154.682,224.000 154.565,224.000 154.365 C 224.000 154.164,224.135 154.021,224.300 154.047 C 225.084 154.171,225.600 153.954,225.605 153.500 C 225.608 153.225,226.238 152.593,227.005 152.096 C 227.772 151.599,228.400 151.004,228.400 150.773 C 228.400 150.542,228.625 150.480,228.900 150.635 C 229.300 150.861,229.300 150.810,228.900 150.379 C 228.625 150.082,228.400 148.976,228.400 147.920 C 228.400 146.081,227.870 145.450,227.041 146.300 M271.719 159.637 C 270.249 160.186,269.483 161.556,269.239 164.067 C 268.949 167.059,267.795 167.823,265.336 166.650 C 263.766 165.901,262.800 165.815,262.800 166.424 C 262.800 166.657,262.575 166.712,262.300 166.547 C 261.960 166.343,261.976 166.463,262.349 166.923 C 262.993 167.717,263.357 167.816,262.994 167.100 C 262.855 166.825,263.024 166.949,263.370 167.376 C 263.717 167.804,263.997 168.344,263.994 168.576 C 263.991 168.809,263.820 168.735,263.616 168.412 C 263.411 168.088,263.133 167.933,262.999 168.068 C 262.864 168.203,263.316 168.713,264.002 169.202 C 264.841 169.799,265.170 170.301,265.004 170.733 C 264.869 171.086,264.888 171.246,265.046 171.087 C 265.504 170.629,266.771 172.010,266.513 172.684 C 266.334 173.148,266.472 173.231,267.092 173.034 C 267.650 172.857,267.986 172.986,268.162 173.445 C 268.377 174.005,268.320 174.031,267.809 173.608 C 267.392 173.262,267.200 173.244,267.200 173.551 C 267.200 173.921,267.607 174.111,268.100 173.972 C 268.155 173.956,268.740 174.224,269.400 174.567 C 270.914 175.353,271.097 174.894,270.203 172.551 C 269.285 170.147,269.898 168.400,271.661 168.400 C 274.726 168.400,276.449 166.700,276.962 163.171 C 277.428 159.966,275.077 158.382,271.719 159.637 M169.219 164.380 C 168.900 164.582,168.493 164.658,168.316 164.548 C 168.139 164.439,167.886 164.631,167.754 164.975 C 167.622 165.319,167.309 165.606,167.057 165.613 C 166.387 165.631,164.129 167.710,164.606 167.869 C 164.829 167.943,169.097 171.069,174.091 174.815 C 181.276 180.204,183.320 181.553,183.885 181.280 C 184.278 181.091,185.193 180.638,185.919 180.276 C 186.644 179.913,187.114 179.815,186.963 180.060 C 186.808 180.311,186.900 180.433,187.174 180.342 C 187.441 180.253,187.631 180.025,187.596 179.835 C 187.561 179.645,187.772 179.331,188.066 179.137 C 188.490 178.857,188.436 178.659,187.800 178.175 C 187.360 177.840,187.000 177.349,187.000 177.083 C 187.000 176.818,186.719 176.601,186.375 176.601 C 185.451 176.600,180.378 172.759,180.672 172.284 C 180.819 172.045,180.725 171.999,180.444 172.173 C 179.877 172.523,178.708 171.672,179.034 171.145 C 179.158 170.944,179.111 170.813,178.930 170.854 C 178.363 170.980,177.195 170.332,177.398 170.003 C 177.504 169.831,177.289 169.445,176.921 169.145 C 176.334 168.668,176.284 168.689,176.516 169.310 C 176.716 169.843,176.440 169.747,175.408 168.923 C 174.431 168.144,174.173 167.728,174.517 167.487 C 174.801 167.287,174.610 167.258,174.050 167.417 C 173.461 167.584,173.193 167.535,173.345 167.288 C 173.480 167.070,173.215 166.793,172.755 166.672 C 172.283 166.549,172.037 166.264,172.189 166.017 C 172.338 165.777,172.311 165.606,172.130 165.637 C 171.278 165.785,170.779 165.557,171.038 165.138 C 171.215 164.852,171.148 164.785,170.862 164.962 C 170.608 165.119,170.201 165.124,169.957 164.974 C 169.649 164.783,169.679 164.596,170.057 164.356 C 170.356 164.167,170.420 164.012,170.200 164.012 C 169.980 164.012,169.539 164.178,169.219 164.380 M236.624 176.213 C 236.135 176.583,236.045 176.800,236.382 176.800 C 236.680 176.800,236.427 177.254,235.811 177.825 C 235.203 178.388,234.447 178.750,234.132 178.629 C 233.805 178.504,233.666 178.584,233.810 178.816 C 234.135 179.342,232.358 180.832,231.687 180.596 C 231.405 180.497,231.019 180.824,230.829 181.324 C 230.389 182.481,229.358 183.345,228.818 183.011 C 228.588 182.869,228.400 183.011,228.400 183.327 C 228.400 183.977,227.685 184.669,226.809 184.867 C 226.486 184.940,226.037 185.346,225.811 185.770 C 225.585 186.193,224.590 186.953,223.600 187.459 C 222.610 187.964,221.971 188.383,222.180 188.389 C 222.856 188.409,221.592 189.391,220.885 189.395 C 220.508 189.398,220.241 189.613,220.291 189.872 C 220.341 190.132,219.801 190.808,219.091 191.374 C 218.381 191.941,217.515 192.673,217.166 193.002 C 216.818 193.331,216.227 193.600,215.852 193.600 C 215.296 193.600,215.250 193.746,215.600 194.400 C 215.914 194.986,215.904 195.200,215.565 195.200 C 215.217 195.200,215.218 195.340,215.570 195.764 C 215.869 196.124,215.895 196.417,215.643 196.573 C 215.383 196.734,215.383 197.204,215.643 197.951 C 215.860 198.575,215.985 199.336,215.919 199.643 C 215.854 199.949,216.025 200.155,216.300 200.100 C 216.575 200.045,216.800 200.360,216.800 200.800 C 216.800 202.295,217.872 201.605,226.285 194.700 C 230.909 190.905,235.986 186.746,237.568 185.458 C 240.250 183.274,240.427 183.034,240.180 181.908 C 239.998 181.081,240.052 180.785,240.351 180.970 C 240.865 181.287,240.504 178.830,239.947 178.220 C 239.756 178.011,239.600 177.336,239.600 176.720 C 239.600 175.436,239.013 175.294,237.864 176.300 C 237.102 176.967,237.077 176.967,237.320 176.300 C 237.624 175.465,237.614 175.464,236.624 176.213 M156.182 181.382 C 154.429 183.135,155.666 186.800,158.010 186.800 C 160.455 186.800,161.213 183.551,159.231 181.569 C 157.808 180.147,157.440 180.124,156.182 181.382 M251.330 203.384 C 247.471 205.062,248.729 208.800,253.154 208.800 C 257.614 208.800,259.203 205.438,255.610 203.605 C 253.771 202.667,253.062 202.630,251.330 203.384 M136.350 210.593 C 134.521 211.603,134.669 213.477,136.555 213.186 C 136.751 213.156,137.021 213.286,137.155 213.475 C 137.290 213.664,137.895 214.133,138.500 214.518 C 139.105 214.903,139.600 215.484,139.600 215.809 C 139.600 216.134,139.745 216.355,139.922 216.300 C 140.549 216.105,143.210 217.797,143.027 218.274 C 142.908 218.583,143.075 218.669,143.486 218.512 C 143.962 218.329,144.045 218.413,143.801 218.832 C 143.620 219.144,143.614 219.271,143.788 219.114 C 144.305 218.648,145.593 219.553,145.342 220.206 C 145.188 220.608,145.371 220.800,145.908 220.800 C 146.725 220.800,147.760 221.706,147.379 222.087 C 147.262 222.205,147.463 222.415,147.827 222.555 C 148.331 222.748,148.430 222.641,148.244 222.105 C 148.036 221.510,148.092 221.521,148.599 222.176 C 148.930 222.604,149.200 223.106,149.200 223.294 C 149.200 223.482,149.513 223.582,149.896 223.518 C 150.298 223.450,150.752 223.760,150.969 224.249 C 151.177 224.717,151.692 225.315,152.115 225.579 C 152.737 225.967,152.823 225.958,152.565 225.530 C 152.315 225.113,152.370 225.099,152.823 225.465 C 153.551 226.051,155.559 225.959,155.325 225.349 C 155.230 225.101,155.613 224.783,156.176 224.642 C 157.759 224.244,157.731 224.218,148.089 217.000 C 138.663 209.944,138.091 209.632,136.350 210.593 M267.306 213.641 C 261.167 214.355,258.188 217.374,258.470 222.596 L 258.600 224.992 256.446 225.568 C 254.668 226.044,253.721 226.062,251.025 225.672 C 245.943 224.938,240.673 225.362,243.900 226.247 C 244.395 226.382,244.800 226.652,244.800 226.847 C 244.800 227.041,245.017 227.155,245.282 227.100 C 245.547 227.045,245.772 227.270,245.782 227.599 C 245.792 227.929,246.070 228.200,246.400 228.201 C 247.884 228.207,250.889 230.601,253.115 233.551 C 253.671 234.288,254.260 234.675,254.615 234.539 C 254.952 234.409,255.200 234.546,255.200 234.861 C 255.200 235.162,255.560 235.632,256.000 235.907 C 256.440 236.182,256.800 236.753,256.800 237.176 C 256.800 237.611,257.172 238.064,257.653 238.217 C 258.316 238.427,258.383 238.563,257.956 238.827 C 257.491 239.115,257.492 239.246,257.962 239.683 C 258.377 240.069,258.446 240.074,258.235 239.700 C 258.080 239.425,258.124 239.200,258.334 239.200 C 258.801 239.200,259.279 240.349,258.999 240.801 C 258.639 241.384,260.051 240.964,260.441 240.372 C 260.648 240.057,260.782 237.820,260.739 235.400 C 260.678 232.014,260.815 230.657,261.330 229.513 L 262.000 228.025 265.189 228.271 C 270.425 228.675,274.148 226.432,275.234 222.218 C 275.464 221.328,275.820 220.047,276.026 219.372 C 276.840 216.699,276.198 214.937,273.996 213.798 C 272.742 213.150,271.730 213.126,267.306 213.641 M315.953 346.300 C 315.927 346.465,315.927 346.735,315.953 346.900 C 315.979 347.065,315.858 347.200,315.685 347.200 C 315.512 347.200,315.342 347.605,315.308 348.100 C 315.248 348.975,315.263 348.978,315.823 348.224 C 316.373 347.484,316.624 346.000,316.200 346.000 C 316.090 346.000,315.979 346.135,315.953 346.300 M194.806 349.100 C 194.809 349.265,195.654 349.864,196.684 350.432 L 198.556 351.464 200.878 350.437 C 204.083 349.021,203.830 348.800,199.000 348.800 C 196.690 348.800,194.803 348.935,194.806 349.100 M83.600 368.302 C 83.600 368.522,83.870 368.926,84.200 369.200 C 84.535 369.478,84.800 369.521,84.800 369.298 C 84.800 369.078,84.530 368.674,84.200 368.400 C 83.865 368.122,83.600 368.079,83.600 368.302 M296.400 371.868 C 295.544 372.740,295.520 372.826,296.233 372.465 C 297.172 371.990,298.283 370.787,297.749 370.824 C 297.557 370.837,296.950 371.307,296.400 371.868 M291.970 376.253 C 291.045 377.256,291.041 377.280,291.892 376.761 C 292.383 376.462,292.872 375.988,292.980 375.709 C 293.266 374.962,293.052 375.077,291.970 376.253 M92.888 377.592 C 93.160 378.028,93.652 378.488,93.982 378.614 C 94.312 378.741,94.149 378.384,93.621 377.822 C 92.469 376.597,92.217 376.517,92.888 377.592 M96.000 380.336 C 96.000 380.520,96.495 380.895,97.100 381.167 L 98.200 381.663 97.317 380.831 C 96.369 379.940,96.000 379.801,96.000 380.336 M285.458 381.664 C 284.830 382.316,284.397 382.930,284.495 383.028 C 284.680 383.213,287.200 380.947,287.200 380.597 C 287.200 380.142,286.527 380.554,285.458 381.664 M99.179 382.978 C 100.320 384.192,100.574 384.273,100.025 383.247 C 99.804 382.833,99.306 382.373,98.921 382.225 C 98.398 382.024,98.463 382.216,99.179 382.978 M101.845 385.273 C 101.961 385.460,102.212 385.516,102.403 385.398 C 102.594 385.280,102.936 385.502,103.163 385.892 C 103.390 386.281,103.578 386.420,103.582 386.200 C 103.592 385.497,103.021 384.921,102.318 384.927 C 101.942 384.931,101.730 385.086,101.845 385.273 M104.013 386.271 C 103.998 386.820,105.901 388.406,106.554 388.388 C 106.799 388.381,106.642 388.168,106.205 387.915 C 105.768 387.661,105.099 387.082,104.718 386.627 C 104.338 386.172,104.021 386.012,104.013 386.271 M278.806 386.791 C 278.503 387.212,278.133 387.482,277.985 387.391 C 277.837 387.299,277.299 387.669,276.788 388.212 C 276.278 388.756,275.622 389.200,275.330 389.200 C 275.039 389.200,274.800 389.470,274.800 389.800 C 274.800 390.654,275.015 390.565,276.542 389.083 C 277.288 388.359,278.089 387.830,278.322 387.907 C 278.555 387.985,278.953 387.662,279.205 387.190 C 279.800 386.078,279.521 385.799,278.806 386.791 M108.400 389.505 C 108.400 389.742,109.075 390.345,109.900 390.846 C 110.725 391.348,111.490 391.877,111.600 392.023 C 111.938 392.472,114.400 393.638,114.400 393.349 C 114.400 393.200,114.736 393.465,115.147 393.939 C 115.558 394.412,116.198 394.800,116.571 394.800 C 116.943 394.800,117.156 394.947,117.045 395.127 C 116.934 395.307,117.463 395.679,118.221 395.953 C 118.980 396.227,119.600 396.650,119.600 396.893 C 119.600 397.135,119.711 397.222,119.848 397.086 C 119.984 396.950,120.358 397.101,120.680 397.423 C 121.001 397.744,121.430 397.905,121.632 397.780 C 121.835 397.655,122.000 397.729,122.000 397.945 C 122.000 398.160,122.553 398.458,123.229 398.606 C 123.904 398.755,124.351 398.982,124.221 399.112 C 123.968 399.366,127.470 401.139,128.300 401.177 C 128.575 401.190,128.800 401.399,128.800 401.643 C 128.800 401.886,129.058 401.986,129.374 401.865 C 129.690 401.744,130.008 401.825,130.081 402.044 C 130.155 402.264,130.481 402.489,130.807 402.545 C 131.133 402.601,132.132 403.028,133.027 403.494 C 133.921 403.960,135.631 404.703,136.827 405.144 C 138.022 405.585,140.710 406.591,142.800 407.378 C 146.476 408.763,147.685 409.137,151.300 410.011 C 152.235 410.237,153.270 410.534,153.600 410.671 C 154.673 411.118,154.945 411.184,159.400 412.085 C 161.820 412.574,163.915 413.138,164.056 413.339 C 164.196 413.540,164.867 413.622,165.546 413.523 C 166.225 413.423,166.830 413.472,166.890 413.632 C 167.017 413.967,177.624 415.130,181.870 415.275 C 183.449 415.329,184.664 415.497,184.570 415.649 C 184.476 415.800,187.809 415.941,191.977 415.961 C 196.630 415.984,199.649 415.845,199.800 415.599 C 199.936 415.380,201.162 415.198,202.524 415.196 C 204.699 415.192,211.557 414.548,217.890 413.753 C 219.039 413.609,219.905 413.370,219.814 413.222 C 219.722 413.074,221.170 412.733,223.030 412.464 C 224.891 412.195,226.905 411.772,227.507 411.523 C 228.108 411.275,228.851 411.114,229.157 411.167 C 229.464 411.219,229.824 411.108,229.957 410.922 C 230.091 410.735,231.730 410.206,233.600 409.747 C 235.470 409.288,237.266 408.842,237.590 408.756 C 237.915 408.670,238.401 408.397,238.671 408.148 C 238.940 407.900,239.977 407.574,240.975 407.425 C 241.974 407.275,243.041 406.902,243.348 406.595 C 243.654 406.289,244.012 406.145,244.143 406.276 C 244.274 406.407,244.610 406.336,244.890 406.118 C 245.171 405.900,246.615 405.301,248.100 404.787 C 249.585 404.273,250.800 403.705,250.800 403.526 C 250.800 403.347,250.977 403.200,251.192 403.200 C 251.408 403.200,253.100 402.480,254.952 401.600 C 256.804 400.720,258.518 400.000,258.760 400.000 C 259.002 400.000,259.200 399.809,259.200 399.576 C 259.200 399.343,259.361 399.252,259.558 399.374 C 259.755 399.496,260.018 399.329,260.143 399.004 C 260.342 398.485,252.171 398.413,192.227 398.410 C 154.748 398.409,123.750 398.288,123.342 398.143 C 122.934 397.997,122.285 397.608,121.900 397.277 C 121.515 396.947,121.200 396.801,121.200 396.954 C 121.200 397.107,120.707 396.775,120.104 396.216 C 119.501 395.657,118.858 395.200,118.675 395.200 C 118.492 395.200,117.500 394.706,116.471 394.101 C 115.442 393.497,114.510 392.987,114.400 392.967 C 113.400 392.787,112.131 391.965,110.781 390.625 C 110.351 390.198,110.000 390.001,110.000 390.187 C 110.000 390.372,109.640 390.198,109.200 389.800 C 108.760 389.402,108.400 389.269,108.400 389.505 M273.400 390.778 C 272.960 390.955,272.464 391.021,272.297 390.925 C 272.131 390.828,271.886 391.031,271.754 391.375 C 271.622 391.719,271.264 392.000,270.957 392.000 C 270.651 392.000,270.400 392.167,270.400 392.371 C 270.400 392.575,269.372 393.250,268.115 393.871 C 264.841 395.489,264.400 395.753,264.400 396.095 C 264.400 396.646,265.186 396.414,265.967 395.633 C 266.388 395.212,266.839 394.972,266.967 395.101 C 267.096 395.229,267.995 394.764,268.966 394.067 C 269.937 393.370,270.828 392.800,270.948 392.800 C 271.067 392.800,271.843 392.340,272.672 391.777 C 274.826 390.316,274.940 390.159,273.400 390.778 M263.221 396.770 C 262.929 397.175,262.385 397.417,261.994 397.314 C 261.285 397.129,260.517 397.851,260.956 398.289 C 261.252 398.586,264.400 397.191,264.400 396.763 C 264.400 396.077,263.718 396.082,263.221 396.770 " stroke="none" fill="#04e34b" fill-rule="evenodd"></path><path id="path2" d="M172.370 16.600 C 172.086 18.030,171.706 19.200,171.527 19.200 C 170.034 19.200,171.331 22.341,173.100 23.012 C 174.145 23.408,177.140 24.782,179.755 26.066 C 185.264 28.771,185.600 28.836,185.600 27.200 C 185.600 26.540,185.755 26.000,185.945 26.000 C 186.252 26.000,187.200 22.214,187.200 20.988 C 187.200 20.498,185.446 19.566,177.858 16.026 C 172.527 13.538,172.988 13.490,172.370 16.600 M196.200 34.503 C 192.240 34.670,187.137 34.914,184.861 35.045 L 180.722 35.282 180.989 37.141 C 181.258 39.010,183.455 45.955,183.943 46.483 C 184.211 46.771,203.865 46.128,205.500 45.778 C 206.516 45.560,206.669 44.584,205.876 43.389 C 205.185 42.349,204.474 40.001,203.882 36.800 L 203.400 34.200 196.200 34.503 M162.793 122.900 C 162.239 123.615,161.429 124.920,160.993 125.800 C 160.557 126.680,160.050 127.510,159.866 127.645 C 159.682 127.779,159.568 127.959,159.612 128.045 C 159.657 128.130,159.493 128.920,159.249 129.800 C 158.445 132.696,158.602 133.160,160.700 134.064 C 161.745 134.515,164.940 135.925,167.800 137.198 C 181.829 143.445,180.800 143.099,180.800 141.571 C 180.800 141.141,180.966 140.477,181.168 140.095 C 181.371 139.713,182.028 138.185,182.628 136.700 C 183.229 135.215,183.834 134.000,183.974 134.000 C 184.113 134.000,184.551 133.452,184.947 132.781 C 185.659 131.576,185.361 130.400,184.343 130.400 C 184.145 130.400,181.422 129.250,178.292 127.845 C 161.968 120.518,164.109 121.201,162.793 122.900 M222.324 134.382 C 222.256 134.560,220.310 135.742,218.000 137.007 C 202.332 145.592,202.348 145.580,204.100 147.341 C 205.285 148.531,207.422 151.784,206.743 151.365 C 206.453 151.185,206.612 151.543,207.097 152.160 C 207.582 152.777,208.094 153.893,208.234 154.641 C 208.556 156.357,207.712 156.646,216.133 151.929 C 220.130 149.691,224.520 147.251,225.889 146.508 C 228.279 145.212,229.272 144.400,228.468 144.400 C 228.260 144.400,227.964 143.725,227.811 142.900 C 227.474 141.075,226.475 138.871,225.513 137.825 C 225.121 137.398,224.800 136.930,224.800 136.784 C 224.800 136.320,222.453 134.043,222.324 134.382 M259.361 141.921 C 257.843 143.614,255.617 146.080,254.412 147.400 C 253.208 148.720,251.785 150.289,251.249 150.886 L 250.276 151.973 251.438 152.410 C 252.533 152.822,253.520 153.611,255.113 155.349 C 257.177 157.600,257.311 157.672,258.008 156.906 C 258.362 156.518,260.432 154.220,262.607 151.800 C 264.783 149.380,267.082 146.835,267.717 146.144 L 268.871 144.888 267.936 143.758 C 266.241 141.713,264.432 140.037,263.267 139.434 L 262.119 138.841 259.361 141.921 M115.600 141.538 C 115.600 142.008,111.555 143.600,110.361 143.600 C 109.917 143.600,109.664 143.780,109.800 144.000 C 109.941 144.229,109.589 144.400,108.977 144.400 C 107.676 144.400,107.685 144.453,109.991 150.600 C 110.899 153.020,112.016 156.080,112.473 157.400 C 112.931 158.720,113.470 159.980,113.672 160.200 C 114.108 160.674,117.241 160.791,116.952 160.322 C 116.842 160.145,117.129 160.000,117.589 160.000 C 118.050 160.000,119.372 159.511,120.527 158.913 L 122.629 157.825 120.095 151.013 C 116.465 141.253,116.546 141.449,116.051 141.284 C 115.803 141.201,115.600 141.315,115.600 141.538 M162.535 167.719 C 161.544 168.728,160.968 169.291,159.700 170.492 C 159.205 170.961,158.800 171.572,158.800 171.849 C 158.800 172.127,158.465 172.590,158.055 172.877 C 157.392 173.342,155.866 176.168,155.527 177.558 C 155.457 177.845,156.313 178.737,157.429 179.540 C 158.545 180.343,162.849 183.565,166.993 186.700 C 175.770 193.340,174.976 193.098,176.975 189.741 C 178.793 186.688,180.893 184.067,182.226 183.187 C 183.479 182.359,183.820 182.678,173.131 174.675 C 167.923 170.776,163.603 167.417,163.531 167.212 C 163.459 167.007,163.011 167.235,162.535 167.719 M236.376 187.027 C 228.731 193.300,223.733 197.374,220.457 200.000 C 217.854 202.087,217.252 202.769,217.404 203.457 C 217.826 205.365,221.374 210.348,224.269 213.100 C 227.648 216.311,227.457 216.194,228.172 215.500 C 228.455 215.225,233.910 210.770,240.295 205.600 L 251.903 196.200 251.082 195.300 C 250.630 194.805,250.131 194.400,249.973 194.400 C 249.701 194.400,247.843 192.564,245.250 189.732 C 244.612 189.034,243.488 187.369,242.752 186.032 C 241.078 182.986,241.353 182.943,236.376 187.027 " stroke="none" fill="#ecebe8" fill-rule="evenodd"></path><path id="path3" d="M87.400 200.800 C 87.264 201.020,86.476 201.200,85.649 201.200 C 82.194 201.200,77.708 203.353,74.947 206.339 C 72.604 208.871,72.356 209.243,71.498 211.522 C 71.025 212.775,70.492 213.903,70.313 214.028 C 69.384 214.676,69.495 220.582,70.455 221.648 C 73.180 224.672,76.451 223.088,76.986 218.486 C 77.818 211.325,84.714 206.838,91.910 208.776 C 95.400 209.715,99.594 214.987,99.598 218.440 C 99.604 222.774,103.065 224.573,105.950 221.741 C 107.010 220.701,107.107 214.036,106.068 213.689 C 105.810 213.603,105.600 213.301,105.600 213.018 C 105.600 210.888,100.662 204.494,98.500 203.825 C 98.005 203.671,97.600 203.398,97.600 203.216 C 97.600 202.621,94.330 201.563,91.740 201.322 C 90.343 201.191,89.200 200.930,89.200 200.742 C 89.200 200.264,87.701 200.313,87.400 200.800 " stroke="none" fill="#ffffff" fill-rule="evenodd"></path><path id="path4" d="M175.816 10.827 C 175.961 11.061,176.174 11.160,176.288 11.046 C 176.402 10.931,176.757 11.100,177.076 11.419 C 177.744 12.087,178.979 12.213,178.584 11.573 C 178.439 11.339,178.226 11.240,178.112 11.354 C 177.998 11.469,177.643 11.300,177.324 10.981 C 176.656 10.313,175.421 10.187,175.816 10.827 M173.816 11.173 C 173.671 11.408,173.698 11.603,173.876 11.606 C 174.054 11.609,173.993 11.744,173.740 11.906 C 173.106 12.311,172.901 13.682,173.445 13.874 C 173.697 13.962,173.996 13.381,174.133 12.536 C 174.386 10.975,174.264 10.449,173.816 11.173 M181.759 13.700 C 181.601 13.975,181.614 14.071,181.788 13.914 C 181.963 13.757,182.481 13.892,182.942 14.214 C 184.180 15.081,184.751 14.899,183.656 13.987 C 182.557 13.071,182.156 13.011,181.759 13.700 M176.800 15.400 C 177.790 15.930,178.780 16.364,179.000 16.364 C 179.220 16.364,178.590 15.930,177.600 15.400 C 176.610 14.870,175.620 14.436,175.400 14.436 C 175.180 14.436,175.810 14.870,176.800 15.400 M185.419 15.365 C 185.844 15.675,186.361 15.824,186.569 15.696 C 186.777 15.567,186.599 15.326,186.173 15.159 C 184.921 14.669,184.590 14.759,185.419 15.365 M187.000 16.000 C 186.864 16.220,187.056 16.400,187.426 16.400 C 188.293 16.400,187.925 18.674,186.942 19.393 C 186.336 19.836,186.336 19.890,186.944 20.123 C 187.305 20.262,187.600 20.212,187.600 20.013 C 187.600 19.815,187.810 19.145,188.066 18.526 C 188.688 17.026,188.717 16.691,188.276 16.100 C 187.825 15.497,187.335 15.458,187.000 16.000 M182.400 18.000 C 183.170 18.422,183.980 18.766,184.200 18.766 C 184.420 18.766,183.970 18.422,183.200 18.000 C 182.430 17.578,181.620 17.234,181.400 17.234 C 181.180 17.234,181.630 17.578,182.400 18.000 M170.619 26.034 C 170.463 28.033,170.275 30.058,170.201 30.534 C 169.930 32.297,169.462 37.010,169.530 37.300 C 169.569 37.465,169.437 37.600,169.238 37.600 C 169.038 37.600,168.746 38.535,168.589 39.677 C 168.432 40.820,167.975 42.710,167.573 43.877 C 167.172 45.045,166.998 46.000,167.188 46.000 C 167.378 46.000,167.598 45.807,167.676 45.571 C 167.760 45.321,169.482 45.914,171.810 46.996 C 174.004 48.015,177.015 49.412,178.500 50.101 C 181.401 51.446,181.456 51.507,180.700 52.512 C 180.237 53.128,180.066 53.115,178.400 52.347 C 175.746 51.123,174.501 50.801,174.515 51.343 C 174.551 52.812,174.350 53.616,174.000 53.400 C 173.780 53.264,173.600 53.450,173.600 53.814 C 173.600 54.961,171.939 60.000,171.561 60.000 C 171.362 60.000,171.196 60.315,171.190 60.700 C 171.177 61.608,169.715 65.979,169.228 66.567 C 169.021 66.816,168.549 67.915,168.179 69.010 C 167.808 70.104,167.167 71.478,166.753 72.062 C 166.339 72.646,166.000 73.296,166.000 73.508 C 166.000 73.719,165.627 74.366,165.171 74.946 C 164.715 75.526,164.467 76.000,164.620 76.000 C 164.773 76.000,164.670 76.274,164.392 76.610 C 164.114 76.945,164.002 77.335,164.143 77.476 C 164.284 77.618,164.406 77.568,164.413 77.367 C 164.477 75.522,165.530 75.553,168.003 77.475 C 169.366 78.534,171.498 80.184,172.740 81.143 C 173.983 82.102,175.936 83.683,177.079 84.656 L 179.158 86.426 178.313 87.857 L 177.469 89.289 178.336 88.747 C 178.814 88.449,179.597 87.259,180.076 86.102 C 180.555 84.946,181.070 84.000,181.219 84.000 C 181.369 84.000,181.807 83.145,182.194 82.100 C 182.580 81.055,183.119 79.840,183.390 79.400 C 183.662 78.960,184.304 77.250,184.818 75.600 C 185.331 73.950,185.870 72.510,186.014 72.400 C 186.158 72.290,186.671 70.850,187.154 69.200 C 187.637 67.550,188.201 65.840,188.408 65.400 C 188.614 64.960,188.967 64.094,189.191 63.476 C 189.415 62.858,189.782 62.465,190.006 62.604 C 190.230 62.742,190.309 63.023,190.183 63.228 C 190.056 63.432,190.143 63.600,190.376 63.600 C 190.938 63.600,190.914 63.074,190.326 62.486 C 190.066 62.226,189.826 61.695,189.793 61.306 C 189.760 60.918,189.597 60.180,189.429 59.666 C 189.015 58.397,190.235 59.039,192.803 61.442 C 193.822 62.395,195.453 63.539,196.428 63.983 L 198.200 64.792 198.800 63.945 C 201.260 60.471,204.923 59.662,207.975 61.918 C 208.631 62.403,209.459 62.800,209.815 62.800 C 211.132 62.800,212.800 65.018,212.800 66.769 C 212.800 67.666,212.626 68.400,212.414 68.400 C 212.202 68.400,211.362 68.985,210.547 69.700 C 208.326 71.651,205.471 71.575,202.067 69.474 C 198.778 67.444,197.379 67.965,195.995 71.740 C 195.641 72.703,195.004 73.568,194.476 73.800 C 193.843 74.078,193.622 74.444,193.752 75.000 C 193.855 75.440,194.065 77.024,194.218 78.520 L 194.498 81.240 204.549 80.962 C 210.077 80.809,214.660 80.530,214.733 80.342 C 214.807 80.154,215.482 80.000,216.233 80.000 C 217.512 80.000,217.599 79.916,217.584 78.700 C 217.552 76.054,215.396 66.774,214.287 64.509 C 213.988 63.899,213.397 62.320,212.974 61.000 C 212.550 59.680,212.100 58.510,211.974 58.400 C 211.670 58.134,210.362 54.812,210.164 53.801 C 210.078 53.362,209.826 52.942,209.604 52.868 C 209.382 52.794,209.200 52.424,209.200 52.047 C 209.200 51.669,209.050 51.189,208.867 50.980 C 208.685 50.771,208.311 49.812,208.036 48.850 C 207.181 45.847,206.853 45.698,201.800 46.025 C 199.380 46.182,194.340 46.376,190.600 46.455 L 183.800 46.600 182.716 43.502 C 179.790 35.139,179.910 34.837,186.200 34.755 C 188.620 34.724,192.580 34.563,195.000 34.397 C 197.790 34.206,196.019 34.171,190.160 34.300 L 180.921 34.505 180.666 33.552 C 180.526 33.029,180.408 32.015,180.405 31.300 L 180.400 30.000 182.500 29.995 C 185.518 29.987,186.528 29.671,185.814 28.957 C 185.508 28.651,185.092 28.400,184.889 28.400 C 184.687 28.400,181.659 27.050,178.161 25.400 C 170.322 21.703,170.962 21.649,170.619 26.034 M174.469 24.262 C 175.258 24.976,175.452 26.597,174.796 27.002 C 173.543 27.777,171.489 25.298,172.437 24.155 C 173.042 23.426,173.576 23.454,174.469 24.262 M193.907 29.090 C 194.626 29.179,195.706 29.177,196.307 29.086 C 196.908 28.995,196.320 28.922,195.000 28.924 C 193.680 28.926,193.188 29.001,193.907 29.090 M202.667 31.467 C 202.520 31.613,202.400 32.140,202.400 32.637 C 202.400 33.162,202.106 33.618,201.700 33.724 C 201.274 33.836,201.436 33.925,202.113 33.954 C 203.143 33.997,203.218 33.897,203.131 32.600 C 203.027 31.055,203.042 31.092,202.667 31.467 M166.684 47.200 C 166.799 47.640,167.052 48.000,167.247 48.000 C 167.665 48.000,167.679 47.872,167.357 47.033 C 167.005 46.114,166.437 46.255,166.684 47.200 M169.061 48.301 C 168.847 48.648,171.863 50.304,172.387 50.129 C 172.504 50.089,172.923 50.349,173.317 50.706 C 173.957 51.285,174.008 51.287,173.792 50.722 C 173.658 50.374,172.705 49.771,171.674 49.381 C 170.643 48.992,169.688 48.503,169.550 48.294 C 169.393 48.056,169.211 48.059,169.061 48.301 M205.004 50.878 C 207.516 53.863,204.555 55.835,201.760 53.040 C 200.201 51.481,200.061 50.683,201.208 49.880 C 202.335 49.090,203.831 49.484,205.004 50.878 M190.832 64.554 C 190.756 65.400,191.752 67.953,192.079 67.751 C 192.291 67.620,192.289 67.339,192.073 67.064 C 191.872 66.809,191.517 66.060,191.285 65.400 C 191.053 64.740,190.849 64.359,190.832 64.554 M163.068 78.063 C 162.820 79.012,164.163 81.106,164.584 80.426 C 164.720 80.206,164.470 79.801,164.030 79.526 C 163.463 79.172,163.296 78.758,163.458 78.113 C 163.584 77.611,163.598 77.200,163.490 77.200 C 163.382 77.200,163.192 77.589,163.068 78.063 M165.200 80.718 C 165.200 80.933,165.625 81.386,166.144 81.726 C 166.663 82.067,167.392 82.649,167.763 83.020 C 168.134 83.391,168.531 83.602,168.645 83.488 C 168.759 83.374,168.616 83.085,168.326 82.846 C 166.004 80.930,165.200 80.383,165.200 80.718 M170.000 84.539 C 170.000 84.615,170.360 85.093,170.800 85.600 C 171.343 86.226,171.600 86.336,171.600 85.941 C 171.600 85.314,170.841 84.400,170.320 84.400 C 170.144 84.400,170.000 84.462,170.000 84.539 M172.013 85.871 C 172.039 86.516,173.539 88.000,174.164 88.000 C 174.514 88.000,174.800 88.159,174.800 88.354 C 174.800 88.758,176.788 90.145,177.026 89.907 C 177.112 89.821,176.259 89.047,175.130 88.186 C 174.002 87.325,172.836 86.378,172.539 86.082 C 172.243 85.785,172.006 85.691,172.013 85.871 M182.287 90.979 C 182.657 95.874,180.952 101.433,177.944 105.145 C 177.425 105.785,176.460 106.990,175.800 107.822 C 175.140 108.654,173.310 110.700,171.734 112.367 C 166.788 117.601,164.000 120.789,164.000 121.213 C 164.000 121.372,164.585 121.738,165.300 122.024 C 167.462 122.892,184.145 130.374,184.951 130.838 C 185.519 131.165,185.841 131.131,186.276 130.696 C 186.775 130.197,187.174 130.466,189.325 132.754 C 190.686 134.202,192.160 135.706,192.600 136.096 C 196.177 139.267,199.655 142.515,201.217 144.143 C 202.579 145.563,203.142 145.929,203.306 145.502 C 203.429 145.180,204.221 144.556,205.065 144.115 C 205.909 143.673,209.750 141.546,213.600 139.386 C 217.450 137.227,221.004 135.267,221.497 135.030 C 223.178 134.224,223.023 134.003,217.007 128.600 C 209.777 122.108,204.279 115.854,205.089 115.044 C 205.224 114.910,205.128 114.800,204.878 114.800 C 204.201 114.800,203.094 110.594,203.401 109.193 C 203.810 107.332,203.408 107.752,201.575 111.100 C 200.096 113.803,198.135 116.597,196.509 118.319 C 196.239 118.605,195.748 119.225,195.418 119.696 C 194.506 120.998,194.189 120.227,194.310 116.999 C 194.408 114.391,194.314 113.944,193.455 112.946 L 192.491 111.825 190.310 112.513 C 185.860 113.916,181.713 112.488,180.950 109.289 C 180.807 108.690,180.514 107.977,180.300 107.704 C 179.150 106.244,181.323 102.775,183.474 102.636 C 184.093 102.596,185.290 102.328,186.133 102.040 C 189.105 101.024,193.030 103.596,193.999 107.195 C 194.634 109.556,197.239 109.558,200.400 107.200 C 202.987 105.270,203.948 105.126,203.752 106.700 C 203.615 107.798,203.616 107.798,203.968 106.800 C 204.623 104.943,204.487 97.200,203.800 97.200 C 203.470 97.200,203.200 97.058,203.200 96.885 C 203.200 96.712,201.940 96.134,200.400 95.600 C 198.860 95.066,197.600 94.524,197.600 94.395 C 197.600 94.266,196.925 93.920,196.100 93.625 C 194.605 93.092,191.978 91.918,186.531 89.352 C 182.187 87.305,182.014 87.371,182.287 90.979 M176.026 116.814 C 178.018 117.880,176.102 120.800,173.410 120.800 C 171.558 120.800,170.800 120.263,170.800 118.949 C 170.800 117.075,174.040 115.751,176.026 116.814 M134.000 129.261 C 133.010 129.494,132.110 129.818,132.000 129.981 C 131.890 130.144,131.346 130.388,130.792 130.523 C 129.688 130.792,126.865 132.589,125.038 134.185 C 124.399 134.743,123.749 135.200,123.594 135.200 C 123.344 135.200,122.600 135.825,119.322 138.791 C 118.839 139.228,117.898 139.917,117.231 140.322 C 116.505 140.764,116.163 141.208,116.377 141.430 C 116.574 141.633,118.014 145.300,119.578 149.577 C 122.982 158.890,122.578 158.501,125.769 155.529 C 126.203 155.125,127.775 153.850,129.263 152.697 C 130.751 151.544,131.976 150.443,131.984 150.251 C 131.993 150.059,131.730 150.126,131.400 150.400 C 130.425 151.209,130.640 149.489,131.800 147.200 C 133.343 144.155,133.178 143.053,131.059 142.244 C 129.108 141.499,128.395 140.378,128.410 138.081 C 128.438 133.725,130.652 130.709,132.480 132.537 C 132.775 132.832,133.427 133.294,133.930 133.562 C 136.197 134.776,136.894 137.463,135.600 140.000 L 134.800 141.568 135.849 142.541 C 136.426 143.076,137.569 143.621,138.389 143.752 C 139.209 143.883,140.312 144.325,140.840 144.735 C 142.043 145.668,147.600 146.254,147.600 145.448 C 147.600 144.809,146.384 141.133,145.996 140.600 C 145.836 140.380,145.294 138.850,144.792 137.200 C 144.289 135.550,143.653 133.840,143.378 133.400 C 143.104 132.960,142.759 132.027,142.614 131.328 C 142.163 129.166,138.321 128.244,134.000 129.261 M218.568 132.846 C 219.944 133.929,219.824 135.402,218.284 136.329 C 215.886 137.772,212.601 134.225,214.866 132.639 C 216.106 131.770,217.284 131.836,218.568 132.846 M158.400 134.879 C 158.400 136.721,158.649 136.722,159.176 134.883 C 159.443 133.954,159.391 133.605,158.964 133.441 C 158.535 133.277,158.400 133.620,158.400 134.879 M161.600 135.000 C 162.590 135.530,163.580 135.964,163.800 135.964 C 164.020 135.964,163.390 135.530,162.400 135.000 C 161.410 134.470,160.420 134.036,160.200 134.036 C 159.980 134.036,160.610 134.470,161.600 135.000 M166.400 137.009 C 166.400 137.239,169.871 138.809,170.333 138.788 C 170.713 138.771,169.433 138.057,167.796 137.373 C 167.028 137.052,166.400 136.888,166.400 137.009 M256.056 138.413 C 255.407 138.954,255.298 139.200,255.707 139.200 C 256.034 139.200,256.517 138.941,256.780 138.624 C 257.043 138.307,257.740 137.974,258.329 137.884 C 259.363 137.725,259.359 137.718,258.200 137.673 C 257.534 137.647,256.580 137.977,256.056 138.413 M260.000 138.314 C 260.000 138.936,261.195 139.244,261.934 138.813 C 262.555 138.451,262.555 138.424,261.933 138.412 C 261.566 138.405,260.981 138.291,260.633 138.157 C 260.285 138.024,260.000 138.094,260.000 138.314 M158.800 139.770 C 158.800 140.069,159.070 140.418,159.400 140.545 C 159.752 140.680,160.000 140.550,160.000 140.230 C 160.000 139.931,159.730 139.582,159.400 139.455 C 159.048 139.320,158.800 139.450,158.800 139.770 M172.000 139.396 C 172.000 139.670,174.449 140.884,174.632 140.701 C 174.719 140.614,174.162 140.244,173.395 139.878 C 172.628 139.512,172.000 139.295,172.000 139.396 M253.455 141.583 C 251.280 143.908,250.969 144.721,253.006 142.756 C 254.341 141.469,255.796 139.600,255.464 139.600 C 255.379 139.600,254.475 140.492,253.455 141.583 M260.100 140.331 C 259.715 140.734,257.434 143.254,255.031 145.931 C 250.645 150.818,250.354 151.011,248.050 150.550 C 246.240 150.188,246.507 149.476,249.500 146.684 C 250.816 145.457,251.129 144.800,250.400 144.800 C 250.180 144.800,250.000 144.969,250.000 145.176 C 250.000 145.384,249.100 146.492,248.000 147.639 C 245.666 150.073,245.595 150.339,247.200 150.660 C 247.860 150.792,248.400 151.068,248.400 151.274 C 248.400 151.479,248.544 151.558,248.719 151.450 C 248.895 151.342,249.272 151.397,249.557 151.573 C 249.915 151.795,251.324 150.517,254.107 147.447 C 256.325 145.001,258.865 142.235,259.753 141.300 C 260.640 140.365,261.239 139.600,261.083 139.600 C 260.927 139.600,260.485 139.929,260.100 140.331 M162.400 141.667 C 162.400 141.923,162.514 142.020,162.653 141.881 C 162.791 141.742,163.281 141.892,163.742 142.214 C 164.751 142.921,165.200 142.958,165.200 142.333 C 165.200 142.077,165.086 141.980,164.947 142.119 C 164.809 142.258,164.319 142.108,163.858 141.786 C 162.849 141.079,162.400 141.042,162.400 141.667 M177.776 142.203 C 178.204 142.532,178.776 142.800,179.048 142.800 C 179.320 142.800,179.826 143.083,180.171 143.429 C 180.658 143.915,180.800 143.935,180.800 143.515 C 180.800 143.217,179.945 142.665,178.900 142.290 C 177.383 141.744,177.156 141.727,177.776 142.203 M166.000 143.133 C 166.330 143.336,167.050 143.624,167.600 143.771 C 168.295 143.957,168.417 143.925,168.000 143.667 C 167.670 143.464,166.950 143.176,166.400 143.029 C 165.705 142.843,165.583 142.875,166.000 143.133 M102.800 144.600 C 102.800 145.150,102.980 145.600,103.200 145.600 C 103.420 145.600,103.600 145.435,103.600 145.233 C 103.600 145.031,103.709 144.581,103.843 144.233 C 104.002 143.818,103.865 143.600,103.443 143.600 C 103.024 143.600,102.800 143.948,102.800 144.600 M106.179 144.766 C 106.327 145.005,106.692 145.200,106.990 145.200 C 107.289 145.200,107.635 145.425,107.760 145.700 C 107.884 145.975,107.942 145.840,107.889 145.400 C 107.828 144.902,107.437 144.550,106.852 144.466 C 106.253 144.381,106.009 144.490,106.179 144.766 M263.132 151.272 C 257.129 157.912,256.913 158.301,258.352 159.865 C 258.724 160.269,259.437 161.410,259.935 162.400 C 261.243 164.997,261.786 165.900,262.536 166.730 C 262.902 167.134,263.130 167.540,263.041 167.632 C 262.953 167.725,263.133 168.032,263.440 168.316 C 264.178 168.995,264.159 168.363,263.413 167.376 C 262.251 165.841,263.026 165.548,265.336 166.650 C 267.805 167.827,268.949 167.061,269.242 164.035 C 269.653 159.792,274.143 157.421,276.380 160.265 C 278.707 163.223,275.704 168.400,271.661 168.400 C 269.937 168.400,269.266 170.182,270.154 172.402 C 271.303 175.273,270.236 176.043,268.379 173.682 C 267.724 172.849,267.488 172.759,267.089 173.190 C 266.751 173.555,266.744 173.636,267.068 173.455 C 267.326 173.310,267.915 173.674,268.380 174.266 C 269.206 175.316,271.938 176.800,273.044 176.800 C 273.350 176.800,273.600 176.980,273.600 177.200 C 273.600 177.420,274.320 177.600,275.200 177.600 C 276.080 177.600,276.800 177.460,276.800 177.289 C 276.800 177.119,277.835 175.865,279.100 174.504 C 283.339 169.942,285.582 167.408,286.270 166.400 C 286.646 165.850,287.118 165.288,287.320 165.150 C 287.812 164.813,287.414 164.617,284.600 163.809 C 283.280 163.430,282.110 162.981,282.000 162.811 C 281.890 162.640,281.247 162.163,280.570 161.750 C 278.512 160.495,273.600 154.003,273.600 152.538 C 273.600 152.242,273.458 152.000,273.284 152.000 C 273.110 152.000,272.465 151.055,271.851 149.900 C 271.238 148.745,270.335 147.131,269.847 146.313 L 268.958 144.827 263.132 151.272 M172.000 145.800 C 172.550 146.114,173.180 146.372,173.400 146.372 C 173.620 146.372,173.350 146.114,172.800 145.800 C 172.250 145.486,171.620 145.228,171.400 145.228 C 171.180 145.228,171.450 145.486,172.000 145.800 M227.821 145.566 C 227.697 145.767,227.762 145.992,227.966 146.066 C 228.277 146.178,228.561 148.972,228.436 150.686 C 228.416 150.953,227.728 151.628,226.907 152.186 C 225.131 153.393,225.435 153.504,227.555 152.423 C 229.055 151.658,229.080 151.607,229.153 149.180 C 229.252 145.874,228.646 144.230,227.821 145.566 M104.423 149.300 C 105.071 151.115,105.774 152.960,105.984 153.400 C 106.194 153.840,106.561 154.965,106.799 155.900 C 107.036 156.835,107.404 157.600,107.615 157.600 C 108.112 157.600,108.114 156.917,107.617 156.611 C 107.407 156.481,107.336 156.110,107.460 155.787 C 107.584 155.464,107.519 155.200,107.315 155.200 C 107.111 155.200,106.696 154.289,106.393 153.175 C 106.090 152.061,105.694 151.058,105.514 150.947 C 105.334 150.836,105.291 150.577,105.417 150.372 C 105.544 150.168,105.491 150.000,105.299 150.000 C 105.108 150.000,104.721 149.100,104.439 148.000 C 104.157 146.900,103.773 146.000,103.585 146.000 C 103.398 146.000,103.775 147.485,104.423 149.300 M137.612 146.384 C 137.288 146.589,137.178 146.901,137.366 147.078 C 137.555 147.255,137.790 147.174,137.889 146.898 C 137.988 146.621,138.233 146.497,138.434 146.621 C 138.635 146.745,138.800 146.657,138.800 146.424 C 138.800 145.905,138.391 145.892,137.612 146.384 M225.400 146.990 C 224.520 147.532,223.925 147.981,224.077 147.988 C 224.424 148.003,227.200 146.379,227.200 146.160 C 227.200 145.900,227.076 145.957,225.400 146.990 M174.563 146.890 C 174.620 147.171,174.988 147.462,175.381 147.538 C 175.825 147.625,175.991 147.509,175.820 147.232 C 175.668 146.987,175.393 146.881,175.207 146.996 C 175.021 147.111,174.776 147.019,174.664 146.792 C 174.552 146.566,174.506 146.609,174.563 146.890 M180.325 147.669 C 180.256 148.367,179.950 149.021,179.644 149.121 C 179.307 149.232,179.199 149.126,179.368 148.852 C 179.533 148.584,179.373 148.400,178.975 148.400 C 178.422 148.400,178.391 148.507,178.800 149.000 C 179.819 150.228,180.800 149.737,180.800 148.000 C 180.800 146.090,180.502 145.882,180.325 147.669 M134.883 147.867 C 134.159 148.224,133.367 148.895,133.125 149.358 C 132.706 150.157,132.722 150.167,133.442 149.544 C 133.859 149.183,134.830 148.508,135.600 148.045 C 137.250 147.053,136.774 146.935,134.883 147.867 M220.600 149.600 C 219.500 150.252,218.742 150.789,218.916 150.793 C 219.435 150.804,222.326 149.243,222.596 148.806 C 222.953 148.228,222.829 148.278,220.600 149.600 M109.429 150.400 C 109.576 150.950,109.864 151.670,110.067 152.000 C 110.325 152.417,110.357 152.295,110.171 151.600 C 110.024 151.050,109.736 150.330,109.533 150.000 C 109.275 149.583,109.243 149.705,109.429 150.400 M216.696 151.750 C 214.539 153.076,214.321 153.439,216.273 152.455 C 217.193 151.991,218.059 151.429,218.196 151.206 C 218.542 150.647,218.414 150.693,216.696 151.750 M212.700 154.027 C 211.875 154.463,211.200 154.908,211.200 155.018 C 211.200 155.127,211.920 154.849,212.800 154.400 C 213.680 153.951,214.400 153.497,214.400 153.392 C 214.400 153.130,214.397 153.131,212.700 154.027 M220.701 155.579 C 218.568 156.726,218.176 157.376,220.000 156.740 C 220.660 156.510,221.200 156.159,221.200 155.961 C 221.200 155.762,221.459 155.600,221.776 155.600 C 222.310 155.600,223.057 154.866,222.740 154.653 C 222.663 154.601,221.746 155.018,220.701 155.579 M111.444 156.000 C 111.578 156.550,112.026 157.720,112.439 158.600 C 112.852 159.480,113.076 159.751,112.937 159.202 C 112.798 158.653,112.350 157.483,111.941 156.602 C 111.533 155.721,111.309 155.450,111.444 156.000 M209.083 155.879 C 208.544 156.019,208.440 156.280,208.662 156.933 C 208.825 157.410,208.953 158.835,208.947 160.100 C 208.941 161.498,209.108 162.400,209.372 162.400 C 209.668 162.400,209.732 161.469,209.572 159.500 C 209.440 157.876,209.504 156.380,209.717 156.100 C 209.927 155.825,210.031 155.621,209.949 155.646 C 209.867 155.672,209.478 155.777,209.083 155.879 M108.267 159.491 C 107.974 159.966,109.478 160.655,109.897 160.237 C 110.027 160.106,109.848 160.000,109.500 160.000 C 109.152 160.000,108.795 159.784,108.707 159.520 C 108.590 159.170,108.471 159.162,108.267 159.491 M212.186 160.381 C 211.738 160.562,211.143 160.986,210.863 161.324 C 210.083 162.263,211.757 161.731,212.636 160.760 C 213.394 159.923,213.368 159.902,212.186 160.381 M111.400 160.800 C 111.536 161.020,112.087 161.200,112.624 161.200 C 113.161 161.200,113.600 161.020,113.600 160.800 C 113.600 160.580,113.049 160.400,112.376 160.400 C 111.663 160.400,111.256 160.567,111.400 160.800 M168.579 164.435 C 168.388 164.743,168.443 164.821,168.727 164.645 C 168.975 164.492,169.636 164.667,170.196 165.034 C 171.123 165.642,171.191 165.643,170.964 165.050 C 170.827 164.693,170.568 164.400,170.390 164.400 C 170.211 164.400,169.799 164.298,169.473 164.173 C 169.147 164.048,168.745 164.166,168.579 164.435 M165.825 165.552 C 164.738 166.157,163.778 166.865,163.691 167.126 C 163.432 167.904,164.259 167.667,165.527 166.600 C 166.181 166.050,166.895 165.600,167.115 165.600 C 167.335 165.600,167.618 165.330,167.745 165.000 C 167.871 164.670,167.936 164.412,167.887 164.427 C 167.839 164.441,166.911 164.948,165.825 165.552 M173.478 167.104 C 173.387 167.267,174.106 167.989,175.075 168.709 C 176.423 169.710,176.736 169.827,176.405 169.209 C 176.167 168.764,175.832 168.400,175.661 168.400 C 175.491 168.400,174.966 168.042,174.497 167.604 C 174.027 167.166,173.568 166.941,173.478 167.104 M164.800 168.111 C 164.800 168.187,165.385 168.678,166.100 169.201 C 166.904 169.790,167.184 169.887,166.833 169.455 C 166.300 168.799,164.800 167.807,164.800 168.111 M264.270 169.800 C 264.608 170.737,266.291 172.644,266.549 172.381 C 266.646 172.281,266.108 171.480,265.354 170.600 C 264.599 169.720,264.112 169.360,264.270 169.800 M177.443 169.890 C 177.182 170.152,179.213 171.831,184.332 175.581 C 188.218 178.429,188.983 179.200,187.920 179.200 C 187.556 179.200,187.560 179.320,187.937 179.697 C 188.332 180.092,188.510 180.072,188.811 179.597 C 189.367 178.716,189.306 178.560,188.100 177.787 C 187.495 177.400,186.730 176.847,186.400 176.560 C 186.070 176.272,185.428 175.714,184.972 175.319 C 183.704 174.217,181.666 172.800,181.350 172.800 C 181.072 172.800,180.873 172.639,178.724 170.670 C 178.133 170.128,177.556 169.777,177.443 169.890 M167.600 170.125 C 167.600 170.224,168.261 170.809,169.068 171.425 C 169.876 172.041,170.411 172.341,170.256 172.091 C 169.940 171.579,167.600 169.847,167.600 170.125 M170.940 172.703 C 171.096 172.956,171.791 173.567,172.484 174.060 C 173.177 174.554,173.617 174.750,173.460 174.497 C 173.304 174.244,172.609 173.633,171.916 173.140 C 171.223 172.646,170.783 172.450,170.940 172.703 M174.000 174.925 C 174.000 175.024,174.661 175.609,175.468 176.225 C 176.276 176.841,176.811 177.141,176.656 176.891 C 176.340 176.379,174.000 174.647,174.000 174.925 M237.862 175.531 C 237.498 175.934,237.200 176.392,237.200 176.550 C 237.200 176.928,239.171 175.490,239.187 175.100 C 239.210 174.564,238.540 174.782,237.862 175.531 M235.400 177.243 C 235.180 177.465,234.100 178.454,233.000 179.441 C 231.900 180.429,231.360 181.063,231.800 180.851 C 232.240 180.639,232.997 180.091,233.483 179.633 C 233.969 179.175,234.455 178.800,234.563 178.800 C 234.671 178.800,235.244 178.350,235.838 177.800 C 236.472 177.212,236.687 176.808,236.358 176.820 C 236.051 176.831,235.620 177.021,235.400 177.243 M177.340 177.503 C 177.496 177.756,178.191 178.367,178.884 178.860 C 179.577 179.354,180.017 179.550,179.860 179.297 C 179.704 179.044,179.009 178.433,178.316 177.940 C 177.623 177.446,177.183 177.250,177.340 177.503 M154.008 180.669 C 153.554 182.137,153.031 183.532,152.844 183.769 C 152.657 184.006,152.087 185.820,151.577 187.800 C 151.066 189.780,150.528 191.490,150.382 191.600 C 150.236 191.710,149.892 192.520,149.618 193.400 C 148.876 195.781,146.132 201.393,145.421 201.983 C 145.079 202.266,144.800 202.730,144.800 203.013 C 144.800 203.497,143.223 205.137,140.012 207.994 C 139.248 208.673,138.213 209.332,137.712 209.458 C 136.456 209.773,136.566 210.209,137.900 210.204 C 138.944 210.200,157.150 223.310,157.186 224.092 C 157.194 224.253,156.750 224.498,156.200 224.636 C 155.650 224.774,155.200 225.035,155.200 225.216 C 155.200 225.831,153.566 226.069,152.881 225.555 C 152.245 225.078,152.244 225.092,152.862 225.770 C 153.641 226.624,156.301 225.865,158.638 224.123 C 159.319 223.615,160.023 223.200,160.203 223.200 C 160.874 223.200,165.259 218.167,166.113 216.417 C 166.601 215.418,167.094 214.510,167.211 214.400 C 167.327 214.290,167.749 213.390,168.148 212.400 C 168.547 211.410,169.125 210.060,169.433 209.400 C 170.162 207.835,171.783 203.047,172.985 198.910 C 173.511 197.100,174.224 195.215,174.571 194.721 C 174.917 194.226,175.200 193.628,175.200 193.391 C 175.200 192.990,155.593 178.000,155.069 178.000 C 154.939 178.000,154.461 179.201,154.008 180.669 M181.703 180.919 L 183.206 182.365 184.978 181.483 C 185.952 180.997,186.839 180.390,186.949 180.133 C 187.074 179.841,186.672 179.904,185.875 180.301 C 185.174 180.650,184.279 181.090,183.888 181.279 C 183.374 181.526,182.760 181.322,181.688 180.547 L 180.200 179.472 181.703 180.919 M159.231 181.569 C 161.213 183.551,160.455 186.800,158.010 186.800 C 155.666 186.800,154.429 183.135,156.182 181.382 C 157.440 180.124,157.808 180.147,159.231 181.569 M240.204 181.795 C 240.436 182.866,240.241 183.192,238.332 184.926 L 236.200 186.861 238.697 184.930 C 241.381 182.855,241.534 182.566,240.573 181.376 C 239.976 180.638,239.958 180.659,240.204 181.795 M230.122 181.800 C 229.860 182.085,229.410 182.402,229.122 182.504 C 228.835 182.607,228.740 182.840,228.911 183.023 C 229.082 183.206,229.612 182.966,230.089 182.489 C 230.566 182.012,230.876 181.545,230.778 181.451 C 230.680 181.358,230.385 181.514,230.122 181.800 M227.788 183.522 C 226.738 184.274,226.170 185.347,227.078 184.863 C 227.983 184.381,228.595 183.662,228.328 183.395 C 228.245 183.312,228.002 183.369,227.788 183.522 M225.298 185.489 C 225.021 185.588,224.884 185.812,224.992 185.988 C 225.101 186.163,224.648 186.531,223.986 186.806 C 222.624 187.370,222.019 188.025,223.128 187.735 C 224.023 187.501,226.276 185.740,226.000 185.491 C 225.890 185.391,225.574 185.390,225.298 185.489 M229.200 192.239 C 225.570 195.218,222.240 198.043,221.800 198.517 L 221.000 199.379 222.000 198.554 C 222.550 198.100,225.925 195.346,229.500 192.434 C 235.141 187.839,236.375 186.755,235.900 186.812 C 235.845 186.819,232.830 189.261,229.200 192.239 M218.200 191.439 C 217.320 192.213,216.240 193.005,215.800 193.198 C 215.036 193.534,215.034 193.550,215.766 193.575 C 216.188 193.589,216.818 193.336,217.166 193.014 C 217.515 192.692,218.430 191.887,219.200 191.226 C 219.970 190.565,220.420 190.025,220.200 190.027 C 219.980 190.029,219.080 190.664,218.200 191.439 M248.972 198.520 C 247.636 199.664,242.258 204.090,237.020 208.355 C 228.737 215.100,227.594 216.164,228.248 216.521 C 228.662 216.747,229.090 217.045,229.200 217.183 C 229.647 217.745,234.787 221.142,235.564 221.389 C 236.024 221.535,236.400 221.817,236.400 222.015 C 236.400 222.214,237.345 222.839,238.500 223.405 C 239.655 223.970,241.295 224.891,242.145 225.451 C 242.994 226.010,243.580 226.292,243.447 226.076 C 242.849 225.108,245.972 224.942,251.025 225.672 C 253.721 226.062,254.668 226.044,256.446 225.568 L 258.600 224.992 258.470 222.596 C 258.169 217.020,261.098 214.356,268.406 213.561 C 274.945 212.849,277.434 214.748,276.026 219.372 C 275.820 220.047,275.464 221.328,275.234 222.218 C 274.148 226.432,270.425 228.675,265.189 228.271 L 262.000 228.025 261.330 229.513 C 260.812 230.664,260.681 231.993,260.752 235.400 C 260.857 240.414,260.180 242.511,259.171 240.296 C 258.593 239.027,257.976 238.821,258.284 240.000 C 258.399 240.440,258.630 240.800,258.797 240.800 C 259.231 240.800,261.570 247.669,261.862 249.803 C 261.998 250.791,262.276 251.600,262.481 251.600 C 263.069 251.600,264.300 250.860,265.323 249.891 C 265.840 249.401,267.033 248.370,267.975 247.600 C 268.916 246.830,269.892 246.014,270.143 245.787 C 270.395 245.560,271.199 244.952,271.931 244.437 C 272.664 243.922,273.683 243.118,274.197 242.650 C 274.710 242.183,275.805 241.260,276.628 240.600 C 277.452 239.940,278.538 239.040,279.042 238.600 C 279.545 238.160,281.405 236.630,283.175 235.200 C 286.278 232.692,286.385 232.550,286.178 231.200 C 285.497 226.763,285.074 224.800,284.798 224.800 C 284.627 224.800,284.363 224.305,284.213 223.700 C 283.559 221.080,279.168 214.586,277.284 213.455 C 276.968 213.265,276.408 212.815,276.038 212.455 C 275.063 211.503,271.544 208.667,270.759 208.200 C 270.390 207.980,268.833 206.965,267.301 205.945 C 265.768 204.925,264.129 203.968,263.657 203.818 C 263.186 203.669,262.800 203.379,262.800 203.175 C 262.800 202.971,261.953 202.406,260.917 201.919 C 259.881 201.432,258.711 200.711,258.317 200.317 C 257.923 199.923,257.424 199.600,257.208 199.600 C 256.993 199.600,255.868 198.881,254.708 198.002 C 252.056 195.991,251.910 196.004,248.972 198.520 M216.424 200.000 C 216.132 200.685,216.122 201.600,216.406 201.600 C 216.590 201.600,216.800 201.890,216.871 202.244 C 216.981 202.796,217.106 202.771,217.737 202.072 C 218.455 201.276,218.454 201.261,217.670 201.466 C 217.061 201.625,216.822 201.448,216.687 200.738 C 216.589 200.222,216.471 199.890,216.424 200.000 M255.610 203.605 C 259.203 205.438,257.614 208.800,253.154 208.800 C 248.729 208.800,247.471 205.062,251.330 203.384 C 253.062 202.630,253.771 202.667,255.610 203.605 M134.525 211.080 L 133.687 211.760 134.703 212.287 C 135.262 212.577,135.812 212.721,135.926 212.607 C 136.040 212.493,135.923 212.400,135.667 212.400 C 134.949 212.400,135.114 211.290,135.900 210.832 C 136.474 210.497,136.489 210.422,135.981 210.412 C 135.641 210.405,134.986 210.706,134.525 211.080 M136.806 213.486 C 136.803 213.753,137.205 214.188,137.700 214.451 C 138.195 214.715,138.819 215.216,139.087 215.565 C 139.399 215.971,139.579 216.023,139.587 215.709 C 139.594 215.439,139.105 214.903,138.500 214.518 C 137.895 214.133,137.268 213.634,137.106 213.409 C 136.917 213.146,136.810 213.174,136.806 213.486 M140.683 216.736 C 141.169 217.211,141.672 217.600,141.800 217.600 C 142.064 217.600,142.828 218.190,144.230 219.474 C 144.755 219.955,145.283 220.189,145.404 219.994 C 145.524 219.799,145.271 219.452,144.842 219.223 C 144.413 218.993,143.823 218.572,143.531 218.288 C 143.239 218.003,142.280 217.343,141.400 216.821 C 139.895 215.929,139.853 215.923,140.683 216.736 M244.400 227.000 C 244.674 227.330,245.103 227.600,245.353 227.600 C 245.603 227.600,246.293 228.050,246.887 228.600 C 247.480 229.150,248.061 229.600,248.178 229.600 C 248.406 229.600,249.481 230.444,251.110 231.900 C 252.356 233.014,252.552 233.032,251.989 231.980 C 251.748 231.529,251.112 230.960,250.575 230.716 C 250.039 230.472,249.600 230.147,249.600 229.996 C 249.600 229.641,245.498 227.024,245.100 227.124 C 244.935 227.166,244.800 227.020,244.800 226.800 C 244.800 226.580,244.598 226.400,244.351 226.400 C 244.041 226.400,244.056 226.585,244.400 227.000 M254.400 234.700 C 254.401 235.290,256.410 237.323,256.702 237.030 C 256.866 236.866,256.595 236.403,256.100 236.001 C 255.605 235.600,255.200 235.076,255.200 234.836 C 255.200 234.596,255.020 234.400,254.800 234.400 C 254.580 234.400,254.400 234.535,254.400 234.700 M266.600 288.692 C 265.720 289.050,264.370 289.726,263.600 290.195 C 262.830 290.663,261.359 291.360,260.332 291.744 C 259.304 292.128,258.247 292.703,257.983 293.021 C 257.718 293.339,257.293 293.600,257.038 293.600 C 256.783 293.600,255.050 294.417,253.187 295.415 C 251.324 296.413,248.990 297.605,248.000 298.064 C 247.010 298.523,245.866 299.191,245.458 299.549 C 245.050 299.907,244.647 300.160,244.563 300.112 C 244.269 299.942,240.885 301.538,240.616 301.973 C 240.467 302.215,240.198 302.322,240.018 302.211 C 239.838 302.100,239.468 302.277,239.196 302.604 C 238.501 303.442,237.632 303.350,235.368 302.202 C 234.286 301.653,233.254 301.203,233.075 301.202 C 232.897 301.201,231.760 300.732,230.550 300.159 C 228.300 299.095,225.898 299.056,224.200 300.058 C 223.980 300.188,222.180 300.712,220.200 301.223 C 218.220 301.734,216.510 302.253,216.400 302.376 C 216.174 302.629,215.985 302.680,212.455 303.434 C 211.055 303.733,209.705 304.141,209.455 304.342 C 209.205 304.542,207.652 305.009,206.005 305.380 C 204.357 305.750,202.467 306.293,201.805 306.586 C 201.142 306.879,198.984 307.509,197.009 307.986 C 195.034 308.463,193.234 308.995,193.009 309.169 C 191.970 309.971,190.696 309.930,189.857 309.068 C 189.386 308.585,188.505 307.936,187.901 307.627 C 187.296 307.318,186.890 306.976,186.999 306.868 C 187.108 306.759,186.660 306.343,186.004 305.944 C 184.090 304.780,177.071 299.298,175.390 297.653 C 174.451 296.735,171.920 296.643,171.529 297.513 C 171.458 297.671,169.420 298.783,167.000 299.984 C 164.580 301.184,162.510 302.275,162.400 302.406 C 162.290 302.538,161.570 302.890,160.800 303.189 C 160.030 303.487,159.130 303.952,158.800 304.222 C 158.470 304.491,157.210 305.127,156.000 305.635 C 154.790 306.143,153.710 306.667,153.600 306.800 C 153.252 307.221,150.509 308.398,149.325 308.635 C 148.256 308.849,144.745 307.904,141.800 306.611 C 139.580 305.636,133.010 303.215,131.900 302.963 C 131.295 302.826,130.800 302.534,130.800 302.314 C 130.800 302.094,130.536 302.016,130.213 302.140 C 129.890 302.264,129.530 302.210,129.412 302.020 C 129.295 301.829,128.164 301.354,126.899 300.962 C 125.635 300.570,124.510 300.143,124.400 300.012 C 124.130 299.690,123.623 299.773,122.200 300.373 C 121.540 300.652,120.100 301.150,119.000 301.481 C 117.900 301.811,116.820 302.225,116.600 302.400 C 116.380 302.575,115.232 303.004,114.049 303.353 C 112.865 303.702,111.695 304.151,111.449 304.351 C 111.202 304.551,109.560 305.175,107.800 305.739 C 106.040 306.302,104.780 306.779,105.000 306.800 C 105.220 306.821,103.960 307.300,102.200 307.865 C 100.440 308.430,98.910 309.017,98.800 309.171 C 98.578 309.481,93.800 311.025,93.800 310.787 C 93.800 310.704,93.260 310.952,92.600 311.337 C 91.940 311.722,90.094 312.448,88.498 312.950 C 86.902 313.452,85.717 313.984,85.865 314.131 C 86.012 314.279,85.959 314.400,85.747 314.400 C 85.534 314.400,85.144 314.184,84.880 313.920 C 84.616 313.656,84.400 313.560,84.400 313.706 C 84.400 313.947,83.401 313.568,79.201 311.731 C 76.481 310.542,76.194 310.431,75.600 310.340 C 74.629 310.193,72.400 310.830,72.400 311.255 C 72.400 311.471,72.220 311.536,72.000 311.400 C 71.780 311.264,71.600 311.299,71.600 311.479 C 71.600 311.658,70.655 312.234,69.500 312.758 C 68.345 313.283,66.950 314.022,66.400 314.401 C 65.850 314.779,64.725 315.308,63.900 315.575 C 63.075 315.843,62.400 316.204,62.400 316.378 C 62.400 316.551,61.545 317.073,60.500 317.538 C 59.455 318.002,58.330 318.566,58.000 318.791 C 57.670 319.016,56.900 319.378,56.290 319.594 C 54.766 320.135,54.578 320.911,55.437 323.115 C 55.841 324.152,56.133 325.135,56.086 325.300 C 56.039 325.465,56.144 325.600,56.321 325.600 C 56.498 325.600,56.974 326.545,57.379 327.700 C 57.784 328.855,58.360 330.084,58.658 330.431 C 58.956 330.779,59.199 331.229,59.198 331.431 C 59.196 331.856,63.278 340.099,63.640 340.400 C 63.772 340.510,64.111 341.050,64.394 341.600 C 64.677 342.150,65.649 343.759,66.554 345.176 C 67.459 346.594,68.155 347.899,68.100 348.076 C 68.045 348.254,68.151 348.400,68.336 348.400 C 68.520 348.400,68.869 348.834,69.111 349.364 C 69.512 350.244,71.008 352.374,73.312 355.346 C 73.800 355.976,74.363 356.831,74.561 357.246 C 74.760 357.661,75.071 358.000,75.253 358.000 C 75.435 358.000,75.954 358.726,76.407 359.614 C 76.860 360.502,77.404 361.121,77.615 360.991 C 77.827 360.860,78.000 360.931,78.000 361.149 C 78.000 361.678,79.725 364.362,80.079 364.383 C 80.406 364.403,82.616 366.400,82.312 366.400 C 82.151 366.400,85.014 369.606,87.076 371.734 C 89.197 373.924,96.052 380.214,96.180 380.087 C 96.272 379.995,96.764 380.324,97.274 380.819 C 97.783 381.313,97.947 381.573,97.638 381.397 C 97.262 381.182,97.171 381.229,97.362 381.538 C 97.519 381.792,97.886 382.000,98.178 382.000 C 98.470 382.000,99.659 382.892,100.821 383.983 C 101.982 385.073,103.083 385.872,103.266 385.759 C 103.450 385.646,103.600 385.754,103.600 386.000 C 103.600 386.246,103.753 386.353,103.940 386.237 C 104.127 386.122,104.654 386.426,105.112 386.914 C 106.316 388.196,107.108 388.800,107.583 388.800 C 107.812 388.800,108.000 388.991,108.000 389.224 C 108.000 389.457,108.160 389.549,108.355 389.428 C 108.837 389.130,109.668 390.185,109.297 390.624 C 109.133 390.816,109.281 390.761,109.624 390.501 C 110.118 390.127,110.381 390.171,110.895 390.714 C 111.914 391.791,112.732 392.400,113.160 392.400 C 113.377 392.400,113.857 392.805,114.227 393.300 C 114.637 393.850,114.811 393.939,114.672 393.527 C 114.477 392.946,114.638 392.968,115.853 393.685 C 116.927 394.318,117.135 394.605,116.731 394.895 C 116.337 395.177,116.382 395.217,116.903 395.049 C 117.823 394.753,119.158 395.294,120.391 396.462 C 120.935 396.978,121.475 397.400,121.591 397.400 C 121.706 397.400,121.740 397.580,121.667 397.800 C 121.593 398.020,121.654 398.080,121.801 397.933 C 121.948 397.786,122.610 397.854,123.273 398.085 C 124.159 398.394,124.335 398.595,123.939 398.846 C 123.642 399.034,123.589 399.191,123.820 399.194 C 124.051 399.197,124.421 399.019,124.643 398.797 C 124.911 398.529,147.740 398.429,192.902 398.497 C 258.462 398.597,260.766 398.575,260.951 397.865 C 261.071 397.407,261.417 397.188,261.872 397.283 C 262.272 397.367,262.915 397.085,263.300 396.657 C 263.685 396.228,264.003 396.040,264.006 396.239 C 264.009 396.437,264.144 396.420,264.306 396.200 C 264.957 395.314,269.814 392.798,270.550 392.966 C 270.798 393.023,270.865 392.993,270.700 392.901 C 270.192 392.617,270.368 392.000,270.957 392.000 C 271.264 392.000,271.628 391.704,271.767 391.343 C 271.905 390.981,272.120 390.787,272.243 390.910 C 272.643 391.309,274.800 390.340,274.800 389.761 C 274.800 389.452,275.015 389.200,275.278 389.200 C 275.541 389.200,276.273 388.705,276.904 388.101 C 277.860 387.184,278.009 387.134,277.795 387.801 C 277.540 388.599,277.540 388.599,278.044 387.800 C 278.795 386.608,279.474 386.007,279.752 386.286 C 279.889 386.422,280.000 386.343,280.000 386.109 C 280.000 385.876,280.279 385.578,280.621 385.447 C 281.030 385.290,281.155 385.378,280.989 385.705 C 280.849 385.977,281.191 385.705,281.749 385.100 C 282.306 384.495,282.897 384.000,283.061 384.000 C 283.226 384.000,284.145 383.170,285.103 382.156 C 286.061 381.142,286.936 380.403,287.048 380.514 C 287.159 380.626,288.255 379.751,289.484 378.571 C 290.712 377.391,291.898 376.537,292.120 376.674 C 292.342 376.811,292.412 376.743,292.275 376.522 C 291.997 376.071,293.800 374.333,294.166 374.699 C 294.295 374.828,294.400 374.623,294.400 374.243 C 294.400 373.863,294.580 373.664,294.801 373.800 C 295.021 373.937,295.360 373.630,295.555 373.119 C 295.749 372.608,296.500 371.742,297.223 371.195 C 298.913 369.917,300.400 368.448,300.400 368.058 C 300.400 367.890,301.301 366.818,302.401 365.676 C 303.502 364.534,304.284 363.600,304.140 363.600 C 303.996 363.600,304.265 363.264,304.739 362.853 C 305.212 362.442,305.600 361.923,305.600 361.699 C 305.600 361.475,306.050 360.997,306.600 360.637 C 307.150 360.276,307.600 359.781,307.600 359.537 C 307.600 359.292,308.005 358.670,308.500 358.156 C 309.921 356.678,310.801 355.618,310.792 355.394 C 310.787 355.281,311.491 354.230,312.356 353.060 C 314.308 350.417,315.634 347.979,315.360 347.536 C 315.246 347.351,315.354 347.200,315.600 347.200 C 315.846 347.200,315.944 347.032,315.817 346.828 C 315.691 346.623,315.770 346.342,315.993 346.204 C 316.217 346.066,316.418 346.188,316.440 346.476 C 316.462 346.764,316.613 346.550,316.775 346.000 C 316.938 345.450,317.261 345.039,317.494 345.086 C 317.726 345.133,318.034 344.543,318.178 343.775 C 318.322 343.006,318.611 342.483,318.820 342.612 C 319.029 342.742,319.200 342.601,319.200 342.299 C 319.200 341.998,319.549 341.376,319.976 340.918 C 320.403 340.460,320.653 339.986,320.532 339.866 C 320.412 339.745,320.692 339.113,321.156 338.461 C 321.620 337.810,322.000 337.079,322.000 336.838 C 322.000 336.597,322.180 336.400,322.400 336.400 C 322.620 336.400,322.800 336.062,322.800 335.649 C 322.800 335.236,323.074 334.670,323.410 334.392 C 323.745 334.114,323.925 333.792,323.810 333.677 C 323.695 333.562,324.051 332.701,324.601 331.763 C 325.150 330.825,325.600 329.775,325.600 329.429 C 325.600 329.083,325.780 328.800,326.000 328.800 C 326.220 328.800,326.400 328.453,326.400 328.029 C 326.400 327.604,326.673 326.984,327.007 326.650 C 327.341 326.316,327.583 325.898,327.545 325.721 C 327.507 325.545,327.762 324.760,328.111 323.978 C 329.485 320.899,329.447 320.462,327.744 319.753 C 326.895 319.399,326.072 318.905,325.915 318.655 C 325.758 318.405,325.488 318.184,325.315 318.164 C 324.818 318.108,321.022 316.314,320.800 316.031 C 320.527 315.683,317.019 313.796,314.700 312.750 C 313.655 312.279,312.800 311.727,312.800 311.523 C 312.800 311.319,312.620 311.264,312.400 311.400 C 312.180 311.536,312.000 311.490,312.000 311.297 C 312.000 311.105,311.010 310.537,309.800 310.035 C 308.590 309.534,307.600 308.990,307.600 308.826 C 307.600 308.662,306.861 308.284,305.957 307.986 C 305.054 307.688,304.235 307.235,304.137 306.979 C 304.039 306.723,303.252 306.281,302.390 305.997 C 301.527 305.712,300.460 305.142,300.018 304.731 C 299.577 304.320,299.125 303.979,299.015 303.974 C 298.575 303.954,295.787 302.692,295.600 302.427 C 295.490 302.272,294.500 301.720,293.400 301.200 C 292.300 300.680,291.292 300.096,291.160 299.901 C 291.028 299.706,290.668 299.508,290.360 299.460 C 290.052 299.412,287.449 298.081,284.576 296.503 C 281.703 294.925,279.003 293.504,278.576 293.346 C 278.149 293.188,277.710 292.928,277.600 292.768 C 277.490 292.608,276.410 292.003,275.200 291.422 C 273.990 290.841,272.010 289.840,270.800 289.198 C 268.223 287.830,268.606 287.876,266.600 288.692 M203.200 349.106 C 203.200 349.274,202.155 349.873,200.878 350.437 L 198.556 351.464 196.684 350.432 C 194.032 348.970,194.273 348.800,199.000 348.800 C 201.310 348.800,203.200 348.937,203.200 349.106 " stroke="none" fill="#31ad21" fill-rule="evenodd"></path></g></svg>