<?xml version="1.0" encoding="utf-8"?>
<!-- Generator: Adobe Illustrator 25.4.1, SVG Export Plug-In . SVG Version: 6.00 Build 0)  -->
<svg version="1.0" id="Layer_2" xmlns="http://www.w3.org/2000/svg" xmlns:xlink="http://www.w3.org/1999/xlink" x="0px" y="0px"
	 viewBox="0 0 370.6 182.7" enable-background="new 0 0 370.6 182.7" xml:space="preserve">
<rect  width="370.6" height="182.7"/>
<g>
	
		<ellipse transform="matrix(0.7071 -0.7071 0.7071 0.7071 -8.2751 109.0905)" fill="#FD287E" cx="127.5" cy="64.5" rx="13.2" ry="13.2"/>
	<g>
		<path fill="#FFFFFF" d="M186.8,19.7v44.4c0,7-5.7,13.5-12.6,13.5c-7.6,0-13.6-6.3-13.6-13.9l0.2-18.7h-7.1v18.8
			c0,11.3,9.2,20.5,20.5,20.5c10.7,0,19.3-8.7,19.3-19.3V19.7H186.8z"/>
	</g>
	<rect x="202.2" y="44.6" fill="#FFFFFF" width="7" height="39.9"/>
	<path fill="#FFFFFF" d="M247.3,84.3h-28.9V44.7h28.9c11.1,0,20.1,9,20.1,20.1C267.5,75.9,258.4,84.3,247.3,84.3z M225.1,77.6h22.2
		c7.4,0,13.4-5.4,13.4-12.8c0-7.4-6-13.4-13.4-13.4h-22.2V77.6z"/>
	<g>
		<polygon fill="#FFFFFF" points="185.3,139.4 193.2,139.4 173.3,99.9 153.6,139.4 161.4,139.4 173.3,115.6 		"/>
		<polygon fill="#FD287E" points="173.3,115.6 161.4,139.4 185.3,139.4 		"/>
	</g>
	<path fill="#FFFFFF" d="M199.1,139.5V100h6.6l16.3,31.7l16-31.6h6.8v39.7h-6.5v-25.2l-12.2,24.9h-7.9L205.9,115v24.6
		C205.9,139.6,199.2,139.6,199.1,139.5z"/>
	<g>
		<polygon fill="#FFFFFF" points="260.6,106.5 293.6,106.5 293.6,100 254,100 254,139.5 293.6,139.5 293.6,132.8 260.6,132.8 		"/>
		<rect x="260.6" y="106.5" fill="#FD287E" width="33" height="26.3"/>
	</g>
	<path fill="#FFFFFF" d="M150,139.5l-3.5-6.7l-8.5-16.4h-23.4v6.6H134l4.9,9.7h-21.5c-7,0-13.5-5.7-13.5-12.6
		c0-7.6,6.3-13.6,13.9-13.6l28.3,0.2l0,0l0,0l3.3-7l0-0.1l-9.8-19.4c4.8-3.6,7.9-9.4,7.9-15.8c0-11-8.9-19.9-19.9-19.9
		s-19.9,8.9-19.9,19.9s8.9,19.9,19.9,19.9c2.2,0,4.3-0.4,6.3-1l8.5,16.4h-24.8c-11.3,0-20.5,9.2-20.5,20.5
		c0,10.7,8.7,19.3,19.3,19.3h25.7l11.4,22.6h7.9L150,139.5z M127.5,77.7c-7.3,0-13.2-5.9-13.2-13.2s5.9-13.2,13.2-13.2
		c7.3,0,13.2,5.9,13.2,13.2c0,3.7-1.6,7.1-4.1,9.5l-4.9-9.8h-7.5l6.8,13C129.9,77.5,128.7,77.7,127.5,77.7z"/>
	<path fill="#FFFFFF" d="M99.1,64.4c-2.1-1.9-4.9-3.5-8-3.5H74.7l-2.1,0c-2.9,0-4.9-2-4.9-4.8s2.3-4.8,5.2-4.8h20.8h5.3L99,44.7
		H72.9c-6.4,0-11.6,4.8-11.6,11.1c0,2,0.2,4,1.1,5.6h0c2,3.6,6.2,6,10.6,6h16.5l2,0.1c2.9,0,4.9,2.4,4.9,5.2s-2.4,4.9-5.3,4.9H42.4
		v7h48.7c6.5,0,11.8-5.2,11.8-11.6C102.9,69.5,101.4,66.5,99.1,64.4z"/>
	<rect x="275.3" y="116.3" fill="#FFFFFF" width="41.8" height="6.6"/>
</g>
</svg>
