<svg width="222" height="354" viewBox="0 0 222 354" fill="none" xmlns="http://www.w3.org/2000/svg">
<path d="M36.6868 318.015C43.4868 300.815 58.8535 301.848 65.6868 304.515C79.8535 307.682 114.848 310.515 101.687 336.015C93.6868 351.515 78.8963 355.504 63.1868 351.515C47.0189 347.41 29.8868 335.215 36.6868 318.015Z" fill="#1F1E1E" stroke="black" stroke-width="2"/>
<path d="M160.657 317C152.157 303 129.99 306.333 123.157 309C108.99 312.167 83.9958 304.5 97.1571 330C105.157 345.5 120.948 351.489 136.657 347.5C152.825 343.395 170.256 332.81 160.657 317Z" fill="#1F1E1E" stroke="black" stroke-width="2"/>
<path d="M41.657 151C33.9903 137.667 20.8884 86.3472 39.657 57C67.157 14.0001 119.157 28.5 131.657 45.5C143.159 61.143 158.657 95 138.657 139.5C148.657 130 144.157 136 160.657 106.5C146.196 97.6204 148.068 88.875 153.157 82.815C161.957 70.015 180.324 69.1667 190.657 79.0001C200.157 104.667 205.957 163 153.157 191C160.357 218.2 158.49 226.333 156.657 227C158.157 251.333 158.757 301.7 149.157 308.5C137.657 323.5 104.657 325 97.657 319C88.157 330 59.657 323 48.657 309.5C41.0387 300.15 38.1171 272.889 37.3616 255.354C36.8487 262.882 33.9682 271.413 25.157 272C13.157 272.8 8.82366 250.333 8.157 239C9.49033 216.333 8.15699 187 21.657 163.5C26.245 155.514 38.3237 148.333 41.657 151Z" fill="#AC2F2F"/>
<path d="M41.657 151C33.9903 137.667 20.8884 86.3472 39.657 57C67.157 14.0001 119.157 28.5 131.657 45.5C143.159 61.143 158.657 95 138.657 139.5C148.657 130 144.157 136 160.657 106.5C137.857 92.5 155.657 78.8333 162.657 75.5C156.657 75.5 159.657 94.315 153.157 82.815C161.957 70.015 180.324 69.1667 190.657 79.0001C200.157 104.667 205.957 163 153.157 191C160.357 218.2 158.49 226.333 156.657 227C158.157 251.333 158.757 301.7 149.157 308.5C137.657 323.5 104.657 325 97.657 319C88.157 330 59.657 323 48.657 309.5C39.857 298.7 37.3237 264 37.157 248C38.157 255.667 37.157 271.2 25.157 272C13.157 272.8 8.82366 250.333 8.157 239C9.49033 216.333 8.15699 187 21.657 163.5C26.245 155.514 38.3237 148.333 41.657 151Z" stroke="black" stroke-width="2"/>
<path d="M79.157 145C80.0767 145.08 80.9075 145.154 81.657 145.222M81.657 145.222C88.404 145.838 88.557 146 87.657 146L84.657 145.611L83.157 145.417M81.657 145.222L83.157 145.417M83.157 145.417C80.657 160.611 76.857 193.6 81.657 204" stroke="black" stroke-width="2"/>
<path d="M132.054 95.7835C127.117 125.374 104.187 145.784 81.2032 141.949C58.2191 138.115 43.1577 111.365 48.0949 81.7748C53.032 52.1846 75.962 31.774 98.9461 35.6089C121.93 39.4438 136.992 66.1932 132.054 95.7835Z" fill="#4B4B4B" stroke="black" stroke-width="2"/>
<rect x="85.1831" y="46.7535" width="30.9834" height="28" transform="rotate(21.0911 85.1831 46.7535)" stroke="white" stroke-width="3"/>
<path d="M37.657 214.5V205C44.457 201.8 140.78 206.5 156.78 217.5C157.28 217 155.857 217.8 156.657 227C125.157 212.889 75.657 214.833 37.657 214.5Z" fill="black" stroke="black" stroke-width="2"/>
<path d="M132.657 96C131.49 106.333 124.857 130.5 107.657 144.5" stroke="black" stroke-width="2" stroke-linecap="round"/>
<path d="M48.657 79C44.3236 93.8333 43.357 128.2 74.157 147" stroke="black" stroke-width="2" stroke-linecap="round"/>
<path d="M48.657 73C64.8237 84.3333 104.257 103.9 132.657 91.5" stroke="black" stroke-width="2" stroke-linecap="round"/>
<path d="M85.657 89.5C80.8237 100.167 72.857 125.4 79.657 141" stroke="black" stroke-width="2" stroke-linecap="round"/>
<path d="M75.657 240.5C81.3237 244 96.657 248.9 112.657 240.5" stroke="black" stroke-width="2" stroke-linecap="round"/>
<path d="M93.5708 245C91.2721 257.517 88.571 289.842 96.157 319" stroke="black" stroke-width="2" stroke-linecap="round"/>
<path d="M190.893 48.944L187.885 49.84C185.922 47.1093 184.941 44.848 184.941 43.056C184.941 40.9227 186.52 38.832 189.677 36.784C190.957 35.9307 192.237 35.056 193.517 34.16C194.797 33.264 195.885 32.176 196.781 30.896C197.72 29.616 198.189 28.08 198.189 26.288C198.189 24.4533 197.421 23.024 195.885 22C194.392 20.976 192.642 20.464 190.637 20.464C188.632 20.464 186.989 20.8053 185.709 21.488C185.368 21.6587 185.112 22.064 184.941 22.704C184.77 23.344 184.578 24.8373 184.365 27.184L180.909 26.8C180.568 25.4773 180.397 24.0907 180.397 22.64C180.397 21.1467 180.418 20.1867 180.461 19.76C181.698 19.0347 183.384 18.416 185.517 17.904C187.65 17.3493 189.72 17.072 191.725 17.072C195.224 17.072 198.104 17.9467 200.365 19.696C202.626 21.4027 203.757 23.856 203.757 27.056C203.757 28.72 203.416 30.256 202.733 31.664C202.093 33.072 201.261 34.224 200.237 35.12C199.256 36.016 198.168 36.912 196.973 37.808C195.821 38.704 194.754 39.472 193.773 40.112C191.426 41.648 190.253 43.312 190.253 45.104C190.253 45.9573 190.466 47.2373 190.893 48.944ZM193.325 58.928C193.325 59.9947 192.984 60.8693 192.301 61.552C191.661 62.2347 190.786 62.576 189.677 62.576C188.61 62.576 187.714 62.2773 186.989 61.68C186.306 61.04 185.965 60.1867 185.965 59.12C185.965 58.0533 186.285 57.2213 186.925 56.624C187.608 55.984 188.546 55.664 189.741 55.664C192.13 55.664 193.325 56.752 193.325 58.928Z" fill="#1F1E1E"/>
<path d="M205.739 65.328L204.893 65.58C204.341 64.812 204.065 64.176 204.065 63.672C204.065 63.072 204.509 62.484 205.397 61.908C205.757 61.668 206.117 61.422 206.477 61.17C206.837 60.918 207.143 60.612 207.395 60.252C207.659 59.892 207.791 59.46 207.791 58.956C207.791 58.44 207.575 58.038 207.143 57.75C206.723 57.462 206.231 57.318 205.667 57.318C205.103 57.318 204.641 57.414 204.281 57.606C204.185 57.654 204.113 57.768 204.065 57.948C204.017 58.128 203.963 58.548 203.903 59.208L202.931 59.1C202.835 58.728 202.787 58.338 202.787 57.93C202.787 57.51 202.793 57.24 202.805 57.12C203.153 56.916 203.627 56.742 204.227 56.598C204.827 56.442 205.409 56.364 205.973 56.364C206.957 56.364 207.767 56.61 208.403 57.102C209.039 57.582 209.357 58.272 209.357 59.172C209.357 59.64 209.261 60.072 209.069 60.468C208.889 60.864 208.655 61.188 208.367 61.44C208.091 61.692 207.785 61.944 207.449 62.196C207.125 62.448 206.825 62.664 206.549 62.844C205.889 63.276 205.559 63.744 205.559 64.248C205.559 64.488 205.619 64.848 205.739 65.328ZM206.423 68.136C206.423 68.436 206.327 68.682 206.135 68.874C205.955 69.066 205.709 69.162 205.397 69.162C205.097 69.162 204.845 69.078 204.641 68.91C204.449 68.73 204.353 68.49 204.353 68.19C204.353 67.89 204.443 67.656 204.623 67.488C204.815 67.308 205.079 67.218 205.415 67.218C206.087 67.218 206.423 67.524 206.423 68.136Z" fill="black"/>
<path d="M214.933 49.104L213.805 49.44C213.069 48.416 212.701 47.568 212.701 46.896C212.701 46.096 213.293 45.312 214.477 44.544C214.957 44.224 215.437 43.896 215.917 43.56C216.397 43.224 216.805 42.816 217.141 42.336C217.493 41.856 217.669 41.28 217.669 40.608C217.669 39.92 217.381 39.384 216.805 39C216.245 38.616 215.589 38.424 214.837 38.424C214.085 38.424 213.469 38.552 212.989 38.808C212.861 38.872 212.765 39.024 212.701 39.264C212.637 39.504 212.565 40.064 212.485 40.944L211.189 40.8C211.061 40.304 210.997 39.784 210.997 39.24C210.997 38.68 211.005 38.32 211.021 38.16C211.485 37.888 212.117 37.656 212.917 37.464C213.717 37.256 214.493 37.152 215.245 37.152C216.557 37.152 217.637 37.48 218.485 38.136C219.333 38.776 219.757 39.696 219.757 40.896C219.757 41.52 219.629 42.096 219.373 42.624C219.133 43.152 218.821 43.584 218.437 43.92C218.069 44.256 217.661 44.592 217.213 44.928C216.781 45.264 216.381 45.552 216.013 45.792C215.133 46.368 214.693 46.992 214.693 47.664C214.693 47.984 214.773 48.464 214.933 49.104ZM215.845 52.848C215.845 53.248 215.717 53.576 215.461 53.832C215.221 54.088 214.893 54.216 214.477 54.216C214.077 54.216 213.741 54.104 213.469 53.88C213.213 53.64 213.085 53.32 213.085 52.92C213.085 52.52 213.205 52.208 213.445 51.984C213.701 51.744 214.053 51.624 214.501 51.624C215.397 51.624 215.845 52.032 215.845 52.848Z" fill="black"/>
<path d="M47.7804 166C41.993 179.008 31.4929 215.735 37.2804 250" stroke="black" stroke-width="2" stroke-linecap="round"/>
<path d="M158.292 102.629C162.759 105.409 182.488 91.8742 191.794 84.7593C199.28 72 136.465 54.4796 151.185 76.3207C131.896 87.2413 152.708 99.1546 158.292 102.629Z" fill="black" stroke="black" stroke-width="2" stroke-linecap="round"/>
<path d="M8.78042 241C9.47426 237.223 36.3473 238.27 37.2804 249C38.2804 260.5 36.9841 269.516 26.7804 271C13.3178 272.958 7.91312 245.722 8.78042 241Z" fill="black" stroke="black" stroke-width="2" stroke-linecap="round"/>
</svg>
